<svg width="145" height="50" viewBox="0 0 145 50" fill="none" xmlns="http://www.w3.org/2000/svg">
<path d="M17.3346 37.5456V36.9823C18.1608 36.9823 18.7242 36.757 19.0434 36.2969C19.3533 35.8368 19.5129 35.0481 19.5129 33.912V21.8282C19.5129 20.6733 19.3533 19.8658 19.0434 19.4152C18.7336 18.9645 18.1608 18.7391 17.3346 18.7391V18.1758H26.2168C29.4936 18.1758 32.1225 19.1147 34.0849 21.0019C36.0566 22.8891 37.0331 25.2834 37.0331 28.1846C37.0331 31.0389 36.1036 33.3111 34.2351 35.0012C32.3667 36.7006 29.7753 37.5456 26.4515 37.5456H17.3346ZM25.7003 18.9175H22.048V33.2172C22.048 34.5974 22.2076 35.5364 22.5362 36.0434C22.8648 36.5504 23.5221 36.8039 24.4985 36.8039H26.4796C28.8363 36.8039 30.686 36.034 32.0474 34.5035C33.3995 32.9637 34.0755 30.8699 34.0755 28.2222C34.0755 25.4054 33.3337 23.152 31.8596 21.462C30.3762 19.7626 28.3199 18.9175 25.7003 18.9175Z" fill="white"/>
<path d="M47.0988 18.4937H47.7561V23.1413H47.0613C46.9017 21.855 46.3571 20.8597 45.4182 20.1368C44.4793 19.4138 43.2962 19.057 41.8785 19.057C40.6109 19.057 39.5969 19.3293 38.827 19.8645C38.0571 20.4091 37.6721 21.1226 37.6721 22.024C37.6721 22.8596 37.9913 23.6202 38.6298 24.3056C39.2683 24.991 40.6485 25.8736 42.7798 26.9533C45.2492 28.2021 46.9205 29.2912 47.7655 30.2301C48.6199 31.1691 49.0424 32.23 49.0424 33.4412C49.0424 34.9998 48.3945 36.3237 47.0895 37.4316C45.7844 38.5396 44.2258 39.0841 42.3855 39.0841C41.3245 39.0841 39.9725 38.84 38.32 38.3424C37.6439 38.1358 37.212 38.0419 37.0243 38.0419C36.6393 38.0419 36.3389 38.2954 36.1229 38.8024H35.4281V33.4506H36.1229C36.1323 34.9247 36.705 36.1078 37.8223 36.9997C38.9397 37.8917 40.2541 38.333 41.7564 38.333C43.1742 38.333 44.3103 38.0138 45.1741 37.3659C46.0285 36.7274 46.4604 35.8636 46.4604 34.7933C46.4604 33.9952 46.113 33.2253 45.4088 32.4929C44.7046 31.7606 43.2305 30.8123 40.9959 29.6574C39.1744 28.6997 37.9538 27.9486 37.3435 27.3946C36.7332 26.8406 36.2825 26.2397 35.9915 25.5731C35.7004 24.9159 35.5502 24.1929 35.5502 23.4042C35.5502 21.8832 36.1417 20.6532 37.3153 19.7049C38.489 18.7566 40.0288 18.2871 41.916 18.2871C42.9582 18.2871 44.0849 18.4655 45.3055 18.8129C45.8783 18.9725 46.2726 19.0476 46.5073 19.0476C46.6951 19.0476 46.8172 19.0101 46.8829 18.9444C46.9486 18.888 47.0143 18.7378 47.0988 18.4937Z" fill="white"/>
<path d="M49.3993 46.8017C47.9346 47.243 47.0144 46.8393 46.6389 45.5905C46.329 44.5671 46.6858 42.2104 47.7092 38.5111C49.1082 33.6475 50.5448 28.7745 52.0095 23.8922C51.9156 23.7983 51.7935 23.7232 51.6433 23.6762C51.4931 23.6293 51.3804 23.5823 51.3053 23.5448C50.6293 23.7419 49.7561 24.4367 48.6857 25.6292C47.6059 26.8122 46.8266 27.7981 46.3196 28.5586L45.4652 27.7042C46.9487 25.7794 48.1223 24.3428 48.9674 23.4133C50.7325 21.5261 52.1879 20.4088 53.3521 20.0614C54.6948 19.6577 55.5492 20.052 55.906 21.2444C56.2158 22.2678 55.3614 25.9108 53.3521 32.1922C51.3428 38.4736 50.4321 41.9288 50.6199 42.5485C50.7419 42.9428 51.0424 43.0742 51.5306 42.924C52.263 42.7081 53.1643 41.9382 54.2347 40.6331C54.7229 40.0509 55.4365 39.1026 56.3754 37.7694L57.2298 38.6238C56.0938 40.3889 54.9577 41.9288 53.831 43.2526C52.1597 45.2338 50.6856 46.4168 49.3993 46.8017Z" fill="white"/>
<path d="M50.187 10.7822C50.187 15.3428 53.8841 19.04 58.4448 19.04C63.0054 19.04 66.7026 15.3428 66.7026 10.7822C66.7026 6.22155 63.0054 2.52441 58.4448 2.52441C53.8841 2.52441 50.187 6.22155 50.187 10.7822Z" fill="white"/>
<path d="M78.7774 16.4006C78.3173 14.8232 75.5945 14.0252 71.3318 13.9219C71.3412 13.9219 71.3506 13.9313 71.3506 13.9407C71.3693 13.9407 71.3881 13.9407 71.4069 13.9407C71.4445 13.9407 71.4726 13.9313 71.5102 13.9313C71.5853 13.9313 71.6604 13.9407 71.7355 13.95C71.7543 13.95 71.7731 13.95 71.7919 13.95C71.8857 13.95 71.9796 13.9594 72.0735 13.9688C72.1393 13.9688 72.1956 13.9688 72.2519 13.9782C72.3458 13.9782 72.4397 13.9876 72.5242 13.997C72.5618 13.997 72.5899 14.0064 72.6181 14.0158H72.6275C72.665 14.0252 72.7026 14.0252 72.7402 14.0345C72.8247 14.0439 72.9092 14.0533 72.9843 14.0721C73.1157 14.0721 73.2284 14.0909 73.3411 14.119C73.4537 14.1284 73.5664 14.1566 73.6697 14.1848C73.7448 14.1942 73.8105 14.2035 73.8763 14.2129C73.9608 14.2223 74.0453 14.2411 74.1298 14.2599C74.2424 14.2693 74.3551 14.2974 74.4584 14.3256C75.51 14.4571 76.5897 14.9641 77.1249 15.8185C77.4911 16.41 77.3878 17.1611 76.9841 17.6869C76.8902 17.9217 76.7493 18.1376 76.5709 18.3254C76.4771 18.4944 76.355 18.654 76.1954 18.7761C76.1484 18.823 76.1015 18.87 76.0545 18.9169C75.9513 19.0765 75.8198 19.2174 75.6602 19.33C75.5757 19.4333 75.4818 19.5366 75.3785 19.6211C75.1062 19.9685 74.7401 20.269 74.3739 20.5319C73.2941 21.4895 72.0454 22.3534 70.7309 23.0294C70.6558 23.0763 70.5713 23.1233 70.4774 23.1608C70.468 23.1702 70.4492 23.1702 70.4398 23.1796C70.3459 23.2547 70.2333 23.311 70.1206 23.3674C69.1066 23.9871 67.9329 24.6255 66.7029 25.1513C66.6935 25.1607 66.6841 25.1701 66.6748 25.1701C66.5621 25.2358 66.4494 25.2922 66.3367 25.3391H66.3461C66.3367 25.3391 66.3367 25.3391 66.3274 25.3485C66.318 25.3485 66.3086 25.3579 66.2992 25.3673C65.9987 25.4987 65.7077 25.6396 65.4072 25.7616C65.4823 25.7241 65.5668 25.6959 65.6419 25.6583C65.5387 25.7053 65.4354 25.7616 65.3321 25.8086H65.3227C65.2852 25.8367 65.2476 25.8649 65.21 25.8837C65.0692 25.9494 64.9284 26.0151 64.7875 26.0715C64.7312 26.109 64.6655 26.1372 64.5997 26.1654C64.534 26.2029 64.4683 26.2311 64.3932 26.2592C64.3275 26.2968 64.2523 26.325 64.1866 26.3531C64.1772 26.3531 64.1678 26.3625 64.1585 26.3625C64.1585 26.3625 64.1585 26.3625 64.1491 26.3625C64.1397 26.3625 64.1303 26.3719 64.1209 26.3719C64.1115 26.3813 64.0927 26.3813 64.0833 26.3907C64.0082 26.4376 63.9237 26.4752 63.8298 26.5128C63.8111 26.5221 63.7923 26.5315 63.7735 26.5409C63.7453 26.5597 63.7078 26.5785 63.6796 26.5879C63.6608 26.5973 63.6421 26.616 63.6139 26.6254C63.1256 26.8789 62.628 27.0761 62.121 27.2545C61.9614 27.3766 61.783 27.4611 61.567 27.508C61.5107 27.5456 61.445 27.5737 61.3793 27.6019C61.2572 27.677 61.1258 27.724 60.9755 27.7615C60.8722 27.8179 60.769 27.8742 60.6469 27.9117C60.5906 27.9305 60.5436 27.9587 60.4779 27.9775C60.4685 27.9775 60.4685 27.9775 60.4591 27.9869C60.3746 28.0338 60.2901 28.0714 60.1962 28.0995C60.1117 28.1371 60.0272 28.1746 59.9333 28.2028C59.9239 28.2028 59.9146 28.2122 59.9052 28.2122C59.7925 28.2873 59.661 28.3436 59.5202 28.3812C59.4075 28.4375 59.2949 28.4845 59.1634 28.522C59.0977 28.5502 59.0414 28.5784 58.9756 28.6065C58.8817 28.6535 58.7785 28.7004 58.6658 28.7286C58.5625 28.7849 58.4498 28.8319 58.3278 28.8694C58.2808 28.8882 58.2339 28.907 58.1869 28.9258C58.1306 28.9446 58.0743 28.9727 58.0179 28.9821C57.9428 29.0197 57.8677 29.0572 57.7832 29.0854C57.7269 29.1136 57.6705 29.1323 57.6142 29.1511C57.5391 29.1887 57.4546 29.2356 57.3701 29.2544C57.248 29.3295 57.0978 29.3765 56.9476 29.414C56.91 29.4328 56.8725 29.4422 56.8349 29.4516C56.7973 29.4703 56.7504 29.4891 56.7128 29.5079C56.5814 29.583 56.4312 29.6487 56.2715 29.6769C56.1777 29.7239 56.0744 29.7614 55.9711 29.7896C55.8772 29.8365 55.7833 29.8741 55.6706 29.9022C55.6143 29.9304 55.5486 29.9586 55.4829 29.9774C55.3984 30.0243 55.3139 30.0525 55.2106 30.0806C55.0979 30.137 54.9758 30.1839 54.835 30.2215C54.7599 30.2496 54.6754 30.2778 54.5909 30.306C54.5721 30.3154 54.5439 30.3248 54.5252 30.3248C54.4688 30.3529 54.4125 30.3811 54.3468 30.3905C54.3374 30.3999 54.3186 30.3999 54.3092 30.4093H54.2998C54.1778 30.475 54.0369 30.5313 53.8867 30.5689C53.7646 30.6346 53.6332 30.6909 53.483 30.7285C53.3891 30.766 53.2858 30.8036 53.1825 30.8224C53.0605 30.8881 52.929 30.9351 52.7788 30.9726C52.6567 31.0383 52.5159 31.0853 52.3563 31.1228C52.3281 31.1416 52.2905 31.151 52.2624 31.1698C52.1309 31.2355 51.9807 31.2918 51.8211 31.3294C51.7366 31.367 51.6521 31.4045 51.5582 31.4233C51.4549 31.4702 51.3422 31.5078 51.2202 31.536C51.1732 31.5547 51.1169 31.5735 51.0606 31.5829C50.9197 31.658 50.7695 31.7237 50.5911 31.7519C50.516 31.7895 50.4409 31.8176 50.3564 31.8364C50.3 31.8552 50.2437 31.8834 50.1874 31.8928C50.0559 31.9491 49.9151 31.9866 49.7555 32.0148C49.7461 32.0148 49.7367 32.0242 49.7273 32.0242C49.6522 32.0618 49.5583 32.0899 49.4738 32.1181C49.455 32.1275 49.4362 32.1369 49.4175 32.1369C49.4081 32.1369 49.3987 32.1463 49.3799 32.1463C49.1827 32.2214 48.9856 32.2871 48.779 32.334C48.6382 32.4092 48.4785 32.4655 48.3001 32.503C48.1781 32.55 48.056 32.5969 47.9058 32.6157C47.8213 32.6439 47.7368 32.6721 47.6523 32.6908C47.5584 32.7378 47.4551 32.7753 47.3518 32.8129C47.2204 32.8786 47.0702 32.9256 46.9105 32.9537C46.7885 33.0195 46.6476 33.0664 46.488 33.0946C46.4693 33.104 46.4505 33.104 46.4317 33.104C46.3003 33.1697 46.1594 33.2166 46.0092 33.2448C45.9059 33.2823 45.8026 33.3199 45.6806 33.3387C45.5585 33.395 45.4177 33.442 45.2581 33.4701C45.2205 33.4889 45.1829 33.4983 45.136 33.5077C45.0139 33.564 44.8825 33.6016 44.7416 33.6297C44.6196 33.6767 44.4975 33.7236 44.3567 33.7424C44.3004 33.7612 44.244 33.78 44.1877 33.7894C44.075 33.8457 43.953 33.8833 43.8215 33.9114C43.6619 33.9959 43.4741 34.0523 43.2675 34.0804C43.2488 34.0898 43.2206 34.0992 43.2018 34.1086C43.0798 34.1649 42.9483 34.2025 42.7981 34.2307C42.6479 34.2964 42.4882 34.3527 42.3005 34.3715C42.1502 34.4466 41.9718 34.5029 41.7747 34.5311C41.6808 34.5687 41.5775 34.6062 41.4742 34.625C41.4085 34.6532 41.3334 34.6813 41.2583 34.7001C41.1268 34.7564 40.986 34.794 40.8358 34.8222C40.7606 34.841 40.6855 34.8597 40.601 34.8785C40.4977 34.9161 40.3945 34.9442 40.2724 34.9724C40.141 35.0381 39.9813 35.0757 39.8123 35.1038C39.7372 35.132 39.6527 35.1602 39.5682 35.179C39.4274 35.2447 39.2678 35.2822 39.0894 35.301C38.9767 35.348 38.8546 35.3855 38.7232 35.4043C38.6856 35.4231 38.6387 35.4325 38.6011 35.4419C38.4603 35.5076 38.3101 35.5451 38.1411 35.5733C38.0472 35.6109 37.9345 35.639 37.8218 35.6484H37.8124C37.6716 35.7141 37.512 35.7611 37.343 35.7893C37.2021 35.8456 37.0519 35.8925 36.8923 35.9113C36.789 35.9489 36.6857 35.977 36.5731 35.9958C36.498 36.024 36.4135 36.0522 36.3196 36.0709C36.2351 36.0991 36.1412 36.1179 36.0379 36.1273C35.9346 36.1648 35.8219 36.2024 35.7093 36.2212C35.6811 36.2305 35.6435 36.2399 35.6154 36.2399C35.5121 36.2775 35.4088 36.3057 35.2868 36.3244C34.2446 36.6906 33.1366 36.9066 32.0475 37.1225C31.9818 37.1413 31.916 37.1507 31.8503 37.1601C31.7658 37.1882 31.6813 37.207 31.5874 37.2164C31.5686 37.2164 31.5592 37.2258 31.5405 37.2258C31.4654 37.254 31.3902 37.2727 31.3057 37.2915C31.2588 37.3103 31.2118 37.3103 31.1555 37.3197C31.0522 37.3573 30.9396 37.3854 30.8269 37.4136C30.7612 37.4418 30.6954 37.4605 30.6109 37.4699C30.5171 37.4887 30.4326 37.5075 30.3387 37.5263C30.2448 37.5544 30.1415 37.5826 30.0288 37.6014C29.9443 37.6295 29.8504 37.6483 29.7471 37.6577C29.7096 37.6671 29.6814 37.6765 29.6532 37.6859C29.5594 37.714 29.4561 37.7422 29.3434 37.761C29.2495 37.7892 29.1462 37.8173 29.043 37.8267C28.9397 37.8643 28.827 37.883 28.7049 37.9018C28.6204 37.93 28.5265 37.9488 28.442 37.9582C28.4139 37.9675 28.3763 37.9675 28.3388 37.9769C28.2449 38.0051 28.1416 38.0333 28.0383 38.052C27.9914 38.0708 27.9256 38.0708 27.8693 38.0802C27.8317 38.0896 27.7942 38.0896 27.7566 38.099C27.7191 38.1084 27.6721 38.1178 27.6346 38.1272C27.5219 38.1647 27.3905 38.1929 27.2496 38.2117C26.9586 38.2774 26.6769 38.3431 26.3858 38.3901H26.3764C26.367 38.3901 26.367 38.3901 26.3576 38.3901C26.3107 38.3994 26.2544 38.4088 26.2074 38.4182C26.1135 38.4558 26.0009 38.4746 25.8882 38.4933C25.8319 38.5027 25.7755 38.5121 25.7192 38.5215C25.6441 38.5403 25.569 38.5591 25.4845 38.5685C25.4657 38.5685 25.4469 38.5778 25.4281 38.5872C25.3061 38.6342 25.1746 38.653 25.0338 38.6717C24.9493 38.6905 24.8554 38.7093 24.7615 38.7187C24.7145 38.7281 24.677 38.7375 24.63 38.7468C24.5643 38.7656 24.4892 38.775 24.4141 38.7844C24.3859 38.7938 24.3484 38.8032 24.3202 38.8126C24.2263 38.8407 24.123 38.8595 24.0104 38.8689C23.9728 38.8783 23.9165 38.8783 23.8789 38.8877C23.8789 38.8877 23.8789 38.8877 23.8695 38.8877C23.7568 38.9252 23.6442 38.944 23.5221 38.9534C23.4282 38.9816 23.3249 39.0004 23.2217 39.0097C23.1372 39.0285 23.0527 39.0379 22.9682 39.0473C22.9024 39.0661 22.8273 39.0755 22.7616 39.0849C22.7334 39.0942 22.6959 39.0942 22.6583 39.1036C22.5363 39.1412 22.4142 39.16 22.2734 39.16C22.1231 39.1975 21.9635 39.2351 21.8039 39.2445C21.7006 39.2726 21.5879 39.2914 21.4659 39.3008C21.4189 39.3102 21.3814 39.3196 21.3344 39.329C21.2875 39.3384 21.2405 39.3384 21.1936 39.3478C21.1654 39.3571 21.1373 39.3571 21.1185 39.3571C20.9213 39.3947 20.7241 39.4323 20.527 39.451C20.4706 39.4604 20.4143 39.4698 20.358 39.4792C20.2829 39.498 20.2077 39.5074 20.1326 39.5168C20.0669 39.5261 19.9918 39.5449 19.9167 39.5543C19.8697 39.5637 19.8228 39.5731 19.7758 39.5731C19.7477 39.5825 19.7195 39.5825 19.6913 39.5825C19.6819 39.5825 19.6819 39.5825 19.6726 39.5825C19.6256 39.5919 19.5693 39.6013 19.5223 39.6106C19.5036 39.6106 19.4754 39.62 19.4566 39.62C19.4566 39.62 19.4566 39.62 19.4472 39.62C19.4378 39.62 19.4284 39.62 19.4191 39.62C19.3815 39.6294 19.3533 39.6294 19.3158 39.6388C19.2782 39.6388 19.25 39.6482 19.2125 39.6576C19.1937 39.6576 19.1749 39.667 19.1562 39.667C19.081 39.6858 18.9965 39.6952 18.912 39.7045C18.8369 39.7233 18.7618 39.7327 18.6773 39.7421H18.6679C18.5646 39.7703 18.452 39.789 18.3299 39.7984C18.3017 39.7984 18.283 39.8078 18.2548 39.8078C18.2078 39.8172 18.1609 39.8266 18.1046 39.836C18.0295 39.8548 17.945 39.8548 17.8698 39.8642C17.8323 39.8735 17.7947 39.8736 17.7666 39.8736C17.6914 39.8829 17.6163 39.8923 17.5412 39.9017C17.5318 39.9017 17.5224 39.9017 17.513 39.9111C17.4285 39.9299 17.3347 39.9487 17.2314 39.9487C17.1656 39.9581 17.0905 39.9674 17.0154 39.9674C16.9497 39.9768 16.8746 39.9956 16.7995 39.9956C16.7525 40.005 16.7056 40.005 16.6586 40.005C16.5835 40.0238 16.499 40.0332 16.4145 40.0426C16.3206 40.0613 16.2267 40.0707 16.1234 40.0707C16.0296 40.0895 15.9263 40.1083 15.823 40.1083C15.8136 40.1083 15.8136 40.1083 15.8042 40.1083C15.7573 40.1177 15.7009 40.1177 15.654 40.1271C15.5507 40.1458 15.438 40.1646 15.3254 40.1646C15.2221 40.1834 15.1094 40.2022 14.9874 40.2022C14.8841 40.2209 14.7808 40.2397 14.6681 40.2397C14.5648 40.2585 14.4522 40.2773 14.3301 40.2773C14.3207 40.2773 14.3113 40.2773 14.2926 40.2773C14.2081 40.2961 14.1236 40.3055 14.0391 40.3055C14.0109 40.3055 13.9733 40.3054 13.9358 40.3148C13.8419 40.3242 13.748 40.343 13.6447 40.343H13.6353C13.5978 40.343 13.5696 40.3524 13.532 40.3524C13.4757 40.3618 13.4194 40.3618 13.363 40.3712C13.3067 40.3806 13.241 40.3806 13.1753 40.39C13.0814 40.4087 12.9875 40.4181 12.8842 40.4181C12.4523 40.4651 12.011 40.4932 11.5697 40.5026C11.457 40.5214 11.3444 40.5402 11.2223 40.5402C11.2129 40.5402 11.2035 40.5402 11.1941 40.5402C10.7341 40.5871 10.274 40.5965 9.87965 40.5777C9.86087 40.5777 9.85148 40.5777 9.8327 40.5777C9.82332 40.5777 9.81393 40.5777 9.79515 40.5777C9.76698 40.5777 9.73881 40.5777 9.71065 40.5777C9.63553 40.5871 9.56042 40.5965 9.48531 40.5965C9.41958 40.5965 9.34447 40.5965 9.28813 40.5871C9.27874 40.5871 9.27874 40.5871 9.26935 40.5871C9.25996 40.5871 9.25996 40.5871 9.25058 40.5871C8.91257 40.6059 8.57456 40.6059 8.24594 40.5871C8.17082 40.5871 7.91731 40.5777 7.87976 40.5777C7.83281 40.5777 7.77648 40.5871 7.72953 40.5871C7.65442 40.5871 7.58869 40.5777 7.52297 40.5683C7.48541 40.5683 7.43847 40.5777 7.40091 40.5777C7.31641 40.5777 7.24129 40.5683 7.16618 40.559H7.15679C7.13801 40.559 7.12862 40.559 7.10984 40.559C7.09107 40.559 7.08168 40.559 7.0629 40.559C7.01595 40.559 6.9784 40.5496 6.94084 40.5496C6.91267 40.5496 6.87512 40.5496 6.84695 40.5496C6.73428 40.5496 6.631 40.5402 6.53711 40.5214C6.50894 40.5214 6.48077 40.5214 6.4526 40.512C6.44321 40.512 6.44321 40.512 6.43382 40.512C6.32115 40.512 6.22726 40.5026 6.12398 40.4838C6.11459 40.4838 6.1052 40.4838 6.09581 40.4838C6.08643 40.4838 6.08642 40.4838 6.07704 40.4838C5.9362 40.4838 5.81414 40.4745 5.69208 40.4463C5.64513 40.4369 5.59819 40.4369 5.55124 40.4369C5.51369 40.4369 5.47613 40.4369 5.44796 40.4275C5.40102 40.4275 5.35407 40.4087 5.31651 40.3993C5.23201 40.39 5.14751 40.3806 5.07239 40.3618C4.894 40.3524 4.725 40.3242 4.57477 40.2773C4.53721 40.2679 4.50904 40.2585 4.47149 40.2585C4.44332 40.2585 4.41515 40.2491 4.39637 40.2491C4.35882 40.2491 4.32126 40.2397 4.2837 40.2303C4.18042 40.2209 4.07714 40.1928 3.97386 40.1646C3.88936 40.1458 3.81425 40.1271 3.74852 40.0989C3.72974 40.0989 3.72035 40.0989 3.70158 40.0895C3.59829 40.0707 3.5044 40.0519 3.4199 40.0144C3.32601 39.9862 3.23212 39.9581 3.14761 39.9205C3.02556 39.8923 2.91289 39.8454 2.8096 39.789C2.63121 39.7421 2.48098 39.667 2.34953 39.5731C2.24625 39.5261 2.15236 39.4698 2.07725 39.4041C2.0303 39.3853 2.00214 39.3478 1.96458 39.329C1.74863 39.2069 1.57962 39.0379 1.44817 38.8407C1.3355 38.6811 1.24161 38.5121 1.19467 38.3243V38.3149C1.18528 38.2962 1.17589 38.2774 1.17589 38.2586C1.04444 37.7798 1.15711 37.3948 1.34489 36.9629C1.43878 36.747 1.55146 36.5122 1.69229 36.3244L1.70168 36.3151C1.76741 36.2024 1.84252 36.0991 1.92702 36.0052C1.97397 35.9301 2.0303 35.855 2.09603 35.7893C2.18053 35.6672 2.27442 35.5451 2.3777 35.4325C2.4622 35.3104 2.56549 35.2165 2.68754 35.1226C2.71571 35.0945 2.75327 35.0663 2.79083 35.0381C2.84716 34.9818 2.9035 34.9255 2.96922 34.8785C3.00678 34.8503 3.03494 34.8128 3.0725 34.7846C3.12884 34.7283 3.18517 34.6719 3.24151 34.625C3.27906 34.5781 3.3354 34.5499 3.38234 34.5029C3.44807 34.4278 3.52318 34.3715 3.60768 34.3058C3.64524 34.2776 3.67341 34.24 3.71096 34.2119C3.72974 34.1931 3.74852 34.1837 3.7673 34.1649C3.8518 34.071 3.95508 33.9865 4.07714 33.9114C4.1147 33.8833 4.16164 33.8457 4.1992 33.8175C4.26493 33.7518 4.34004 33.6955 4.41515 33.6391C4.42454 33.6297 4.43393 33.6204 4.45271 33.6016C1.26978 35.8268 -0.363936 37.8173 0.0679658 39.3102C1.34489 43.7137 20.02 42.1645 41.7653 35.8456C63.4637 29.5079 80.0543 20.8135 78.7774 16.4006Z" fill="white"/>
<path d="M86.7872 8.86916V0.832031H89.557C90.5335 0.832031 91.3504 1.16065 91.9982 1.78034C92.6273 2.40941 92.9465 3.21688 92.9465 4.20274V5.53601C92.9465 6.51248 92.6179 7.32934 91.9982 7.95841C91.3691 8.58749 90.5617 8.90672 89.557 8.90672H86.7872V8.86916ZM88.3834 2.08079V7.64857H89.4444C90.0171 7.64857 90.4772 7.46079 90.8058 7.04766C91.1344 6.66271 91.294 6.15569 91.294 5.52662V4.20274C91.294 3.57367 91.1344 3.05726 90.8058 2.6817C90.4772 2.29674 90.0171 2.08079 89.4444 2.08079H88.3834Z" fill="white"/>
<path d="M98.4948 6.37243L98.5511 6.70105H98.5793L99.7248 2.89844H101.462L99.0394 9.77131C98.8798 10.2032 98.6356 10.56 98.3634 10.8605C98.0629 11.1609 97.631 11.2924 97.0583 11.2924C96.9268 11.2924 96.786 11.2924 96.6733 11.2642C96.5606 11.236 96.4292 11.2079 96.2414 11.1797L96.4292 10.0154C96.4855 10.0154 96.5419 10.0436 96.5888 10.0436C96.6451 10.0436 96.7015 10.0436 96.7203 10.0436C96.9925 10.0436 97.1803 9.98726 97.3493 9.85581C97.4808 9.72437 97.5935 9.55536 97.678 9.36758L97.8657 8.90751L95.7438 2.9266H97.4808L98.4948 6.37243Z" fill="white"/>
<path d="M105.856 2.89836L105.941 3.77155C106.128 3.47109 106.373 3.22698 106.673 3.06736C106.973 2.90774 107.302 2.82324 107.649 2.82324C108.25 2.82324 108.739 3.01103 109.058 3.39598C109.386 3.78094 109.574 4.37246 109.574 5.18931V8.93559H107.941V5.17992C107.941 4.77619 107.856 4.5039 107.696 4.30673C107.537 4.14712 107.293 4.06261 106.964 4.06261C106.748 4.06261 106.56 4.11895 106.391 4.19406C106.232 4.27856 106.091 4.41001 105.959 4.57902V8.9262H104.363V2.95469H105.856V2.89836Z" fill="white"/>
<path d="M116.56 8.86919C116.503 8.73774 116.447 8.5969 116.4 8.43728C116.344 8.27767 116.316 8.13683 116.316 7.97722C116.156 8.27767 115.931 8.52179 115.668 8.70957C115.396 8.89735 115.067 9.01002 114.691 9.01002C114.062 9.01002 113.574 8.85041 113.255 8.52179C112.926 8.19317 112.738 7.76126 112.738 7.18852C112.738 6.58762 112.954 6.15572 113.414 5.82709C113.874 5.49847 114.532 5.33886 115.396 5.33886H116.288V4.85062C116.288 4.55017 116.203 4.33422 116.072 4.1746C115.912 4.01498 115.687 3.93048 115.396 3.93048C115.123 3.93048 114.935 3.98682 114.795 4.11827C114.663 4.24971 114.579 4.41872 114.579 4.63467H113.029V4.6065C113.001 4.0901 113.217 3.6582 113.677 3.30141C114.137 2.91645 114.766 2.75684 115.499 2.75684C116.203 2.75684 116.804 2.94462 117.236 3.30141C117.668 3.6582 117.912 4.1746 117.912 4.85062V7.31997C117.912 7.59226 117.94 7.86455 117.968 8.10866C117.996 8.35278 118.081 8.5969 118.156 8.84102H116.55V8.86919H116.56ZM115.067 7.8176C115.339 7.8176 115.611 7.7331 115.827 7.60165C116.043 7.4702 116.212 7.3012 116.259 7.11341V6.26839H115.367C115.011 6.26839 114.766 6.35289 114.579 6.5125C114.391 6.67212 114.306 6.89746 114.306 7.14158C114.306 7.32936 114.363 7.49837 114.494 7.62982C114.654 7.76126 114.842 7.8176 115.067 7.8176Z" fill="white"/>
<path d="M122.888 2.8979L122.944 3.68659C123.132 3.38613 123.376 3.17018 123.676 3.01057C123.977 2.85095 124.306 2.76645 124.681 2.76645C125.057 2.76645 125.385 2.85095 125.658 3.01057C125.93 3.17018 126.146 3.44247 126.287 3.77109C126.474 3.44247 126.719 3.19835 126.991 3.01057C127.291 2.82278 127.639 2.73828 128.024 2.73828C128.625 2.73828 129.085 2.92606 129.413 3.33919C129.77 3.74292 129.93 4.372 129.93 5.18886V8.80369H128.324V5.1513C128.324 4.69123 128.24 4.39078 128.108 4.20299C127.977 4.01521 127.723 3.93071 127.46 3.93071C127.244 3.93071 127.028 3.98704 126.859 4.09032C126.7 4.20299 126.559 4.33444 126.456 4.52222C126.456 4.60673 126.456 4.65367 126.456 4.71001C126.456 4.76634 126.456 4.82268 126.456 4.86962V8.81308H124.85V5.17947C124.85 4.74756 124.766 4.41894 124.634 4.23116C124.503 4.04338 124.249 3.95887 123.986 3.95887C123.77 3.95887 123.583 4.01521 123.414 4.09032C123.254 4.17482 123.113 4.27811 123.01 4.44711V8.82247H121.404V2.84156H122.897V2.8979H122.888Z" fill="white"/>
<path d="M135.141 1.45204H133.536V0.231445H135.141V1.45204ZM135.141 8.86948H133.536V2.89797H135.141V8.86948Z" fill="white"/>
<path d="M141.253 7.76217C141.554 7.76217 141.77 7.67767 141.929 7.51805C142.089 7.35844 142.202 7.1331 142.202 6.84203H143.666L143.694 6.8702C143.723 7.47111 143.478 7.98751 143.018 8.39125C142.558 8.79498 141.957 8.99215 141.281 8.99215C140.389 8.99215 139.704 8.71987 139.216 8.14713C138.728 7.57439 138.483 6.8702 138.483 5.97823V5.81861C138.483 4.94542 138.728 4.21306 139.216 3.64971C139.704 3.07697 140.38 2.80469 141.281 2.80469C142.014 2.80469 142.615 3.02064 143.075 3.43376C143.535 3.8375 143.751 4.41024 143.723 5.09565V5.12381H142.258C142.258 4.82336 142.173 4.55107 142.014 4.36329C141.854 4.14734 141.61 4.06284 141.31 4.06284C140.878 4.06284 140.577 4.22245 140.418 4.55107C140.258 4.87969 140.145 5.3116 140.145 5.828V5.98762C140.145 6.53219 140.23 6.93592 140.418 7.26454C140.521 7.59317 140.821 7.76217 141.253 7.76217Z" fill="white"/>
<path d="M91.1247 20.3633C91.1247 20.0628 91.012 19.7905 90.7961 19.6309C90.5801 19.4431 90.1952 19.2741 89.6506 19.0863C88.7023 18.814 87.9699 18.4854 87.4817 18.1099C86.9935 17.7249 86.7494 17.2179 86.7494 16.5606C86.7494 15.9034 87.0216 15.3682 87.5944 14.9269C88.1671 14.5232 88.8713 14.2979 89.7445 14.2979C90.6365 14.2979 91.35 14.542 91.9134 15.002C92.458 15.4621 92.7303 16.063 92.7303 16.739V16.7672H91.1529C91.1529 16.3822 91.0214 16.0912 90.7679 15.8752C90.5238 15.6593 90.167 15.5184 89.7069 15.5184C89.275 15.5184 88.9464 15.6311 88.7023 15.8189C88.4582 16.0067 88.3455 16.2508 88.3455 16.5513C88.3455 16.8235 88.477 17.0395 88.7305 17.2273C88.9746 17.3869 89.4065 17.5841 90.0356 17.7718C90.9275 18.016 91.5848 18.3446 92.0448 18.7483C92.5049 19.1521 92.7209 19.6966 92.7209 20.3539C92.7209 21.0299 92.4486 21.5745 91.904 21.9876C91.3594 22.3913 90.6552 22.5885 89.7539 22.5885C88.8807 22.5885 88.1202 22.3725 87.4723 21.9125C86.8245 21.4524 86.4958 20.8233 86.524 20.0065V19.9783H88.1014C88.1014 20.4665 88.2328 20.8233 88.5333 21.0393C88.8337 21.2552 89.2375 21.3679 89.7539 21.3679C90.1858 21.3679 90.5144 21.2834 90.7585 21.0956C91.0214 20.9078 91.1247 20.6637 91.1247 20.3633Z" fill="white"/>
<path d="M95.8564 19.4415C95.8564 18.5495 96.1006 17.8078 96.5888 17.2444C97.077 16.6717 97.7812 16.3994 98.6544 16.3994C99.5464 16.3994 100.232 16.6717 100.748 17.2444C101.236 17.8172 101.509 18.5495 101.509 19.4415V19.5542C101.509 20.4461 101.265 21.1879 100.748 21.7512C100.26 22.324 99.5558 22.5963 98.6826 22.5963C97.7906 22.5963 97.1052 22.324 96.617 21.7512C96.1287 21.1785 95.8564 20.4461 95.8564 19.5542V19.4415ZM97.462 19.5542C97.462 20.0987 97.5747 20.5306 97.7624 20.8593C97.9502 21.1879 98.2507 21.3475 98.6826 21.3475C99.0863 21.3475 99.4149 21.1879 99.6027 20.8593C99.7905 20.5306 99.9032 20.0987 99.9032 19.5542V19.4415C99.9032 18.8969 99.7905 18.4932 99.6027 18.1364C99.4149 17.8078 99.0863 17.62 98.6826 17.62C98.2788 17.62 97.9502 17.7796 97.7624 18.1364C97.5747 18.465 97.462 18.8969 97.462 19.4415V19.5542Z" fill="white"/>
<path d="M106.447 22.4837H104.842V13.8457H106.447V22.4837Z" fill="white"/>
<path d="M113.706 21.6103C113.518 21.9389 113.302 22.1548 113.002 22.3426C112.729 22.5022 112.401 22.5867 112.025 22.5867C111.396 22.5867 110.908 22.399 110.56 21.9858C110.213 21.5727 110.016 20.953 110.016 20.108V16.4932H111.621V20.1362C111.621 20.5681 111.706 20.8967 111.837 21.0845C111.969 21.2723 112.194 21.3849 112.485 21.3849C112.729 21.3849 112.973 21.3286 113.133 21.2535C113.321 21.169 113.462 21.0375 113.593 20.8685V16.4932H115.199V22.4835H113.809L113.706 21.6103Z" fill="white"/>
<path d="M120.634 15.0385V16.5032H121.639V17.6487H120.634V20.6908C120.634 20.9349 120.691 21.0946 120.766 21.1791C120.85 21.2636 120.982 21.3105 121.151 21.3105C121.235 21.3105 121.31 21.3105 121.367 21.2823C121.423 21.2542 121.498 21.2542 121.583 21.226L121.714 22.3903C121.555 22.4466 121.386 22.5029 121.226 22.5217C121.066 22.5499 120.897 22.578 120.71 22.578C120.165 22.578 119.733 22.4184 119.433 22.118C119.132 21.8175 118.973 21.3293 118.973 20.6533V17.6112H118.099V16.4657H118.973V15.001H120.634V15.0385Z" fill="white"/>
<path d="M126.607 15.0663H125.001V13.8457H126.607V15.0663ZM126.607 22.4837H125.001V16.5028H126.607V22.4837Z" fill="white"/>
<path d="M129.948 19.4415C129.948 18.5495 130.192 17.8078 130.681 17.2444C131.169 16.6717 131.873 16.3994 132.746 16.3994C133.638 16.3994 134.324 16.6717 134.84 17.2444C135.328 17.8172 135.601 18.5495 135.601 19.4415V19.5542C135.601 20.4461 135.357 21.1879 134.84 21.7512C134.324 22.324 133.648 22.5963 132.775 22.5963C131.883 22.5963 131.197 22.324 130.709 21.7512C130.221 21.1785 129.948 20.4461 129.948 19.5542V19.4415ZM131.582 19.5542C131.582 20.0987 131.695 20.5306 131.883 20.8593C132.07 21.1879 132.371 21.3475 132.803 21.3475C133.206 21.3475 133.535 21.1879 133.723 20.8593C133.911 20.5306 134.023 20.0987 134.023 19.5542V19.4415C134.023 18.8969 133.911 18.4932 133.723 18.1364C133.535 17.8078 133.206 17.62 132.803 17.62C132.399 17.62 132.07 17.7796 131.883 18.1364C131.695 18.465 131.582 18.8969 131.582 19.4415V19.5542Z" fill="white"/>
<path d="M140.352 16.4843L140.436 17.3575C140.624 17.057 140.868 16.8129 141.168 16.6533C141.469 16.4937 141.798 16.4092 142.145 16.4092C142.746 16.4092 143.234 16.597 143.553 16.9819C143.882 17.3669 144.07 17.9584 144.07 18.7753V22.5215H142.436V18.7753C142.436 18.3715 142.352 18.0992 142.192 17.9021C142.032 17.7424 141.788 17.6579 141.46 17.6579C141.244 17.6579 141.056 17.7143 140.887 17.7894C140.727 17.8739 140.586 18.0053 140.455 18.1743V22.5215H138.849V16.5406H140.342V16.4843H140.352Z" fill="white"/>
<path d="M88.1671 36.0709H87.078V28.0244H88.1671V36.0709Z" fill="white"/>
<path d="M91.5649 30.0892L91.6494 30.9812C91.8372 30.6526 92.1094 30.4085 92.4099 30.2489C92.7104 30.0892 93.0578 29.9766 93.4427 29.9766C94.0906 29.9766 94.5882 30.1643 94.9356 30.5493C95.2924 30.9343 95.4802 31.4976 95.4802 32.2863V36.0607H94.391V32.3145C94.391 31.7981 94.2783 31.4225 94.0624 31.1972C93.8464 30.9812 93.546 30.8685 93.1141 30.8685C92.7855 30.8685 92.5132 30.953 92.2691 31.0845C92.0249 31.2441 91.8372 31.4413 91.6963 31.7136V36.0983H90.6072V30.1174H91.5555V30.0892H91.5649Z" fill="white"/>
<path d="M98.5705 30.0892L98.655 30.9812C98.8428 30.6526 99.1151 30.4085 99.4155 30.2489C99.716 30.0892 100.063 29.9766 100.448 29.9766C101.096 29.9766 101.594 30.1643 101.941 30.5493C102.298 30.9343 102.486 31.4976 102.486 32.2863V36.0607H101.397V32.3145C101.397 31.7981 101.284 31.4225 101.068 31.1972C100.852 30.9812 100.552 30.8685 100.12 30.8685C99.7911 30.8685 99.5188 30.953 99.2747 31.0845C99.0306 31.2441 98.8428 31.4413 98.7019 31.7136V36.0983H97.6128V30.1174H98.5611V30.0892H98.5705Z" fill="white"/>
<path d="M104.335 33.0283C104.335 32.1363 104.579 31.4227 105.039 30.8312C105.528 30.2585 106.185 29.958 106.992 29.958C107.837 29.958 108.485 30.2585 108.945 30.8312C109.433 31.4039 109.678 32.1363 109.678 33.0283V33.1409C109.678 34.0329 109.433 34.7747 108.973 35.338C108.485 35.9107 107.828 36.183 107.02 36.183C106.204 36.183 105.556 35.9107 105.067 35.338C104.579 34.7653 104.335 34.0329 104.335 33.1409V33.0283ZM105.415 33.1315C105.415 33.7606 105.546 34.2958 105.819 34.7089C106.091 35.1127 106.466 35.338 107.011 35.338C107.527 35.338 107.931 35.1221 108.203 34.7089C108.476 34.3052 108.607 33.7888 108.607 33.1315V33.0189C108.607 32.3898 108.476 31.8734 108.203 31.4415C107.931 31.0378 107.527 30.8124 107.011 30.8124C106.495 30.8124 106.091 31.0284 105.847 31.4415C105.574 31.8452 105.443 32.3616 105.443 33.0189V33.1315H105.415Z" fill="white"/>
<path d="M113.518 34.305L113.603 34.7087H113.631L113.743 34.305L115.133 30.0986H116.25L114.053 36.0795H113.236L111.011 30.0986H112.128L113.518 34.305Z" fill="white"/>
<path d="M121.367 36.0701C121.339 35.8824 121.311 35.7133 121.283 35.5819C121.254 35.4505 121.254 35.3096 121.254 35.1782C121.067 35.4786 120.794 35.6946 120.466 35.9105C120.137 36.0983 119.79 36.211 119.405 36.211C118.776 36.211 118.316 36.0514 117.996 35.7227C117.668 35.3941 117.508 34.9622 117.508 34.3895C117.508 33.8167 117.752 33.3848 118.212 33.0562C118.672 32.7276 119.302 32.568 120.09 32.568H121.283V31.9671C121.283 31.6103 121.17 31.338 120.954 31.122C120.738 30.9061 120.438 30.8216 120.062 30.8216C119.705 30.8216 119.433 30.9061 119.217 31.0939C119.001 31.2817 118.888 31.4788 118.888 31.7417H117.856V31.7136C117.827 31.2817 118.043 30.8685 118.485 30.5211C118.917 30.1643 119.489 29.9766 120.165 29.9766C120.841 29.9766 121.386 30.1362 121.799 30.493C122.212 30.8498 122.428 31.338 122.428 31.9858V34.8683C122.428 35.0843 122.428 35.2721 122.456 35.4974C122.484 35.7133 122.513 35.9011 122.569 36.0983H121.377V36.0701H121.367ZM119.574 35.2533C119.978 35.2533 120.334 35.1406 120.635 34.9528C120.963 34.765 121.151 34.5209 121.264 34.2486V33.3003H120.043C119.611 33.3003 119.255 33.413 118.982 33.629C118.71 33.8449 118.579 34.1172 118.579 34.4176C118.579 34.6899 118.663 34.8777 118.823 35.0467C119.001 35.1969 119.245 35.2533 119.574 35.2533Z" fill="white"/>
<path d="M125.93 28.6522V30.0887H127.076V30.9056H125.93V34.5486C125.93 34.8209 125.986 35.0368 126.09 35.1495C126.202 35.2622 126.362 35.3091 126.55 35.3091C126.606 35.3091 126.681 35.3091 126.766 35.2809C126.85 35.2528 126.897 35.2528 126.953 35.2246L127.085 35.957C127 36.0133 126.897 36.0696 126.728 36.1166C126.568 36.1729 126.399 36.1729 126.268 36.1729C125.836 36.1729 125.479 36.0415 125.207 35.7692C124.935 35.4969 124.822 35.0932 124.822 34.5204V30.8774H123.893V30.0606H124.841V28.624H125.93V28.6522Z" fill="white"/>
<path d="M128.7 33.0283C128.7 32.1363 128.945 31.4227 129.405 30.8312C129.865 30.2303 130.55 29.958 131.358 29.958C132.203 29.958 132.85 30.2585 133.311 30.8312C133.799 31.4039 134.043 32.1363 134.043 33.0283V33.1409C134.043 34.0329 133.799 34.7747 133.339 35.338C132.879 35.9107 132.193 36.183 131.386 36.183C130.569 36.183 129.921 35.9107 129.433 35.338C128.945 34.7653 128.7 34.0329 128.7 33.1409V33.0283ZM129.818 33.1315C129.818 33.7606 129.949 34.2958 130.221 34.7089C130.494 35.1127 130.869 35.338 131.414 35.338C131.93 35.338 132.334 35.1221 132.606 34.7089C132.879 34.3052 133.01 33.7888 133.01 33.1315V33.0189C133.01 32.3898 132.879 31.8734 132.606 31.4415C132.334 31.0378 131.93 30.8124 131.414 30.8124C130.898 30.8124 130.494 31.0284 130.25 31.4415C129.977 31.8452 129.846 32.3616 129.846 33.0189V33.1315H129.818Z" fill="white"/>
<path d="M138.812 31.0378L138.239 31.0096C137.939 31.0096 137.695 31.0941 137.507 31.2255C137.319 31.357 137.15 31.5542 137.047 31.7983V36.061H135.958V30.0895H136.934L137.047 30.9626C137.207 30.6622 137.432 30.4181 137.676 30.2303C137.92 30.0707 138.221 29.958 138.549 29.958C138.634 29.958 138.709 29.958 138.793 29.9862C138.878 29.9862 138.925 30.0143 138.981 30.0425L138.812 31.0378Z" fill="white"/>
<path d="M143.892 34.4647C143.892 34.2205 143.808 34.0328 143.62 33.8638C143.432 33.7041 143.103 33.5633 142.587 33.46C141.855 33.3004 141.31 33.0751 140.953 32.8122C140.568 32.5399 140.409 32.1643 140.409 31.6949C140.409 31.2066 140.625 30.8029 141.038 30.4461C141.442 30.0893 141.986 29.9297 142.643 29.9297C143.348 29.9297 143.892 30.1175 144.305 30.4743C144.709 30.831 144.906 31.263 144.906 31.7794V31.8075H143.873C143.873 31.5352 143.761 31.3193 143.545 31.1033C143.329 30.8874 143.028 30.7747 142.672 30.7747C142.287 30.7747 141.996 30.8592 141.798 31.0188C141.611 31.1784 141.526 31.4038 141.526 31.6479C141.526 31.892 141.611 32.0798 141.77 32.2206C141.93 32.3521 142.287 32.4648 142.775 32.5774C143.535 32.7371 144.108 32.9624 144.456 33.2253C144.84 33.4976 145 33.8731 145 34.3426C145 34.8872 144.784 35.2909 144.352 35.6195C143.92 35.9481 143.376 36.1078 142.672 36.1078C141.911 36.1078 141.31 35.92 140.878 35.535C140.446 35.1501 140.23 34.69 140.249 34.1736V34.1454H141.282C141.31 34.5304 141.442 34.8214 141.714 34.9905C141.986 35.1501 142.315 35.2627 142.662 35.2627C143.047 35.2627 143.338 35.1782 143.554 35.0186C143.78 34.9247 143.892 34.7369 143.892 34.4647Z" fill="white"/>
<path d="M88.1108 48.812H91.9134V49.6852H87.0216V41.6387H88.1108V48.812Z" fill="white"/>
<path d="M95.4996 42.2381V43.6747H96.6451V44.4915H95.4996V48.1345C95.4996 48.4068 95.5559 48.6228 95.6592 48.7354C95.7719 48.8481 95.9315 48.8951 96.1193 48.8951C96.1756 48.8951 96.2507 48.8951 96.3352 48.8669C96.4197 48.8387 96.4667 48.8387 96.523 48.8106L96.6545 49.5429C96.57 49.5992 96.4667 49.6556 96.2977 49.7025C96.138 49.7589 95.969 49.7589 95.8376 49.7589C95.4057 49.7589 95.0489 49.6274 94.7766 49.3551C94.5043 49.0828 94.3917 48.6791 94.3917 48.1064V44.4634H93.4434V43.6465H94.3917V42.21H95.4808V42.2381H95.4996Z" fill="white"/>
<path d="M98.8706 46.7741C98.8706 45.8258 99.0866 45.0371 99.4997 44.4362C99.9034 43.8353 100.476 43.5442 101.237 43.5442C101.593 43.5442 101.885 43.6006 102.157 43.732C102.429 43.8635 102.645 44.0606 102.861 44.3048V41.0186H103.95V49.6566H103.058L102.927 48.9242C102.739 49.1965 102.495 49.4125 102.223 49.5533C101.95 49.6848 101.593 49.7693 101.246 49.7693C100.514 49.7693 99.941 49.497 99.5372 48.9806C99.1335 48.4642 98.9082 47.76 98.9082 46.8868V46.7741H98.8706ZM99.9597 46.8774C99.9597 47.4783 100.091 47.9665 100.345 48.3139C100.589 48.6707 100.974 48.8585 101.49 48.8585C101.819 48.8585 102.091 48.774 102.307 48.6426C102.523 48.5111 102.711 48.2858 102.852 48.0135V45.2437C102.72 44.9996 102.523 44.8118 102.307 44.6428C102.091 44.5113 101.819 44.4268 101.49 44.4268C100.974 44.4268 100.598 44.6428 100.326 45.0747C100.082 45.5066 99.941 46.0793 99.941 46.7553V46.868H99.9597V46.8774Z" fill="white"/>
<path d="M107.866 49.6455H106.777V48.5H107.866V49.6455Z" fill="white"/>
</svg>
