<svg width="14" height="11" viewBox="0 0 14 11" fill="none" xmlns="http://www.w3.org/2000/svg">
<path d="M12.8672 3.97461C12.2832 4.43164 11.5469 4.99023 8.95703 6.86914C8.44922 7.25 7.50977 8.08789 6.62109 8.08789C5.70703 8.08789 4.79297 7.25 4.25977 6.86914C1.66992 4.99023 0.933594 4.43164 0.349609 3.97461C0.248047 3.89844 0.121094 3.97461 0.121094 4.10156V9.28125C0.121094 9.9668 0.654297 10.5 1.33984 10.5H11.9023C12.5625 10.5 13.1211 9.9668 13.1211 9.28125V4.10156C13.1211 3.97461 12.9688 3.89844 12.8672 3.97461ZM6.62109 7.25C7.20508 7.27539 8.04297 6.51367 8.47461 6.20898C11.8516 3.77148 12.1055 3.54297 12.8672 2.93359C13.0195 2.83203 13.1211 2.6543 13.1211 2.45117V1.96875C13.1211 1.30859 12.5625 0.75 11.9023 0.75H1.33984C0.654297 0.75 0.121094 1.30859 0.121094 1.96875V2.45117C0.121094 2.6543 0.197266 2.83203 0.349609 2.93359C1.11133 3.54297 1.36523 3.77148 4.74219 6.20898C5.17383 6.51367 6.01172 7.27539 6.62109 7.25Z" fill="#AF9C3F"/>
</svg>
