<svg width="30" height="31" viewBox="0 0 30 31" fill="none" xmlns="http://www.w3.org/2000/svg">
<path d="M7 21.3105C6.71667 21.3105 6.47933 21.2145 6.288 21.0225C6.096 20.8312 6 20.5939 6 20.3105C6 20.0272 6.096 19.7899 6.288 19.5985C6.47933 19.4065 6.71667 19.3105 7 19.3105H23C23.2833 19.3105 23.5207 19.4065 23.712 19.5985C23.904 19.7899 24 20.0272 24 20.3105C24 20.5939 23.904 20.8312 23.712 21.0225C23.5207 21.2145 23.2833 21.3105 23 21.3105H7ZM7 16.3105C6.71667 16.3105 6.47933 16.2145 6.288 16.0225C6.096 15.8312 6 15.5939 6 15.3105C6 15.0272 6.096 14.7895 6.288 14.5975C6.47933 14.4062 6.71667 14.3105 7 14.3105H23C23.2833 14.3105 23.5207 14.4062 23.712 14.5975C23.904 14.7895 24 15.0272 24 15.3105C24 15.5939 23.904 15.8312 23.712 16.0225C23.5207 16.2145 23.2833 16.3105 23 16.3105H7ZM7 11.3105C6.71667 11.3105 6.47933 11.2149 6.288 11.0235C6.096 10.8315 6 10.5939 6 10.3105C6 10.0272 6.096 9.78955 6.288 9.59755C6.47933 9.40621 6.71667 9.31055 7 9.31055H23C23.2833 9.31055 23.5207 9.40621 23.712 9.59755C23.904 9.78955 24 10.0272 24 10.3105C24 10.5939 23.904 10.8315 23.712 11.0235C23.5207 11.2149 23.2833 11.3105 23 11.3105H7Z" fill="#E9B308"/>
<rect x="0.5" y="0.810547" width="29" height="29" stroke="#E9B308" stroke-opacity="0.15"/>
</svg>
