<svg width="10" height="14" viewBox="0 0 10 14" fill="none" xmlns="http://www.w3.org/2000/svg">
<path d="M4.48828 12.8711C4.7168 13.2266 5.25 13.2266 5.47852 12.8711C9.18555 7.53906 9.87109 6.98047 9.87109 5C9.87109 2.30859 7.6875 0.125 4.99609 0.125C2.2793 0.125 0.121094 2.30859 0.121094 5C0.121094 6.98047 0.78125 7.53906 4.48828 12.8711ZM4.99609 7.03125C3.85352 7.03125 2.96484 6.14258 2.96484 5C2.96484 3.88281 3.85352 2.96875 4.99609 2.96875C6.11328 2.96875 7.02734 3.88281 7.02734 5C7.02734 6.14258 6.11328 7.03125 4.99609 7.03125Z" fill="#AF9C3F"/>
</svg>
