<svg width="80" height="28" viewBox="0 0 80 28" fill="none" xmlns="http://www.w3.org/2000/svg">
<path d="M9.56396 20.5881V20.2773C10.0198 20.2773 10.3306 20.153 10.5068 19.8992C10.6777 19.6453 10.7658 19.2102 10.7658 18.5834V11.9165C10.7658 11.2793 10.6777 10.8338 10.5068 10.5852C10.3358 10.3365 10.0198 10.2122 9.56396 10.2122V9.90137H14.4644C16.2723 9.90137 17.7228 10.4194 18.8055 11.4606C19.8933 12.5018 20.432 13.8228 20.432 15.4235C20.432 16.9983 19.9192 18.2519 18.8883 19.1843C17.8575 20.1219 16.4277 20.5881 14.594 20.5881H9.56396ZM14.1795 10.3106H12.1644V18.2001C12.1644 18.9616 12.2525 19.4796 12.4338 19.7593C12.6151 20.039 12.9777 20.1789 13.5165 20.1789H14.6095C15.9097 20.1789 16.9302 19.7541 17.6814 18.9098C18.4273 18.0602 18.8003 16.905 18.8003 15.4442C18.8003 13.8901 18.391 12.6469 17.5778 11.7144C16.7593 10.7768 15.6248 10.3106 14.1795 10.3106Z" fill="white"/>
<path d="M25.9856 10.0759H26.3482V12.6401H25.9649C25.8769 11.9304 25.5764 11.3813 25.0584 10.9824C24.5404 10.5835 23.8876 10.3867 23.1054 10.3867C22.4061 10.3867 21.8466 10.5369 21.4219 10.8322C20.9971 11.1326 20.7847 11.5263 20.7847 12.0236C20.7847 12.4847 20.9608 12.9043 21.3131 13.2824C21.6653 13.6606 22.4268 14.1475 23.6027 14.7432C24.9651 15.4322 25.8872 16.0331 26.3534 16.5511C26.8248 17.0692 27.0579 17.6545 27.0579 18.3228C27.0579 19.1827 26.7005 19.9131 25.9805 20.5244C25.2604 21.1356 24.4005 21.4361 23.3852 21.4361C22.7998 21.4361 22.0539 21.3014 21.1421 21.0268C20.7692 20.9129 20.5309 20.8611 20.4273 20.8611C20.2149 20.8611 20.0491 21.0009 19.93 21.2807H19.5466V18.328H19.93C19.9351 19.1412 20.2511 19.794 20.8676 20.2861C21.484 20.7782 22.2093 21.0217 23.0381 21.0217C23.8203 21.0217 24.4471 20.8455 24.9237 20.4881C25.3951 20.1358 25.6334 19.6593 25.6334 19.0687C25.6334 18.6284 25.4417 18.2036 25.0532 17.7996C24.6647 17.3955 23.8514 16.8723 22.6185 16.2351C21.6135 15.7068 20.9401 15.2924 20.6034 14.9867C20.2667 14.6811 20.018 14.3496 19.8574 13.9818C19.6969 13.6191 19.614 13.2203 19.614 12.7851C19.614 11.9459 19.9403 11.2673 20.5879 10.7441C21.2354 10.2209 22.0849 9.96191 23.1262 9.96191C23.7012 9.96191 24.3228 10.0603 24.9962 10.252C25.3122 10.3401 25.5298 10.3815 25.6593 10.3815C25.7629 10.3815 25.8302 10.3608 25.8665 10.3245C25.9028 10.2934 25.939 10.2106 25.9856 10.0759Z" fill="white"/>
<path d="M27.255 25.6942C26.4469 25.9377 25.9392 25.7149 25.732 25.026C25.5611 24.4613 25.7579 23.1611 26.3225 21.1201C27.0944 18.4367 27.887 15.7482 28.6951 13.0545C28.6433 13.0027 28.5759 12.9612 28.4931 12.9353C28.4102 12.9094 28.348 12.8835 28.3066 12.8628C27.9336 12.9716 27.4518 13.3549 26.8613 14.0128C26.2656 14.6655 25.8356 15.2095 25.5559 15.6291L25.0845 15.1577C25.9029 14.0957 26.5505 13.3031 27.0167 12.7903C27.9906 11.7491 28.7935 11.1326 29.4359 10.941C30.1766 10.7182 30.648 10.9358 30.8449 11.5937C31.0158 12.1583 30.5444 14.1682 29.4359 17.6338C28.3273 21.0994 27.8248 23.0057 27.9284 23.3476C27.9957 23.5651 28.1615 23.6377 28.4309 23.5548C28.8349 23.4356 29.3322 23.0109 29.9228 22.2908C30.1922 21.9696 30.5859 21.4464 31.1039 20.7108L31.5753 21.1822C30.9485 22.1561 30.3217 23.0057 29.7 23.7361C28.778 24.8291 27.9647 25.4818 27.255 25.6942Z" fill="white"/>
<path d="M27.6892 5.8226C27.6892 8.33881 29.729 10.3786 32.2452 10.3786C34.7614 10.3786 36.8012 8.33881 36.8012 5.8226C36.8012 3.30639 34.7614 1.2666 32.2452 1.2666C29.729 1.2666 27.6892 3.30639 27.6892 5.8226Z" fill="white"/>
<path d="M43.4634 8.92129C43.2096 8.05101 41.7073 7.61069 39.3555 7.55371C39.3607 7.55371 39.3659 7.55889 39.3659 7.56407C39.3762 7.56407 39.3866 7.56407 39.397 7.56407C39.4177 7.56407 39.4332 7.55889 39.4539 7.55889C39.4954 7.55889 39.5368 7.56407 39.5783 7.56925C39.5886 7.56925 39.599 7.56925 39.6093 7.56925C39.6611 7.56925 39.7129 7.57443 39.7647 7.57961C39.801 7.57961 39.8321 7.57961 39.8632 7.58479C39.915 7.58479 39.9668 7.58997 40.0134 7.59515C40.0341 7.59515 40.0497 7.60033 40.0652 7.60551H40.0704C40.0911 7.61069 40.1118 7.61069 40.1325 7.61587C40.1792 7.62105 40.2258 7.62623 40.2672 7.63659C40.3397 7.63659 40.4019 7.64695 40.4641 7.66249C40.5262 7.66768 40.5884 7.68322 40.6454 7.69876C40.6868 7.70394 40.7231 7.70912 40.7593 7.7143C40.806 7.71948 40.8526 7.72984 40.8992 7.7402C40.9614 7.74538 41.0235 7.76092 41.0805 7.77646C41.6607 7.84898 42.2564 8.12871 42.5517 8.60011C42.7537 8.92647 42.6967 9.34088 42.474 9.63098C42.4222 9.76048 42.3445 9.87963 42.2461 9.98323C42.1943 10.0765 42.1269 10.1645 42.0389 10.2319C42.013 10.2578 41.9871 10.2837 41.9612 10.3096C41.9042 10.3976 41.8316 10.4754 41.7436 10.5375C41.697 10.5945 41.6452 10.6515 41.5882 10.6981C41.438 10.8898 41.2359 11.0555 41.0339 11.2006C40.4382 11.729 39.7492 12.2055 39.024 12.5785C38.9825 12.6044 38.9359 12.6303 38.8841 12.651C38.8789 12.6562 38.8686 12.6562 38.8634 12.6614C38.8116 12.7028 38.7494 12.7339 38.6873 12.765C38.1278 13.1069 37.4803 13.4592 36.8017 13.7492C36.7965 13.7544 36.7913 13.7596 36.7861 13.7596C36.724 13.7959 36.6618 13.8269 36.5996 13.8528H36.6048C36.5996 13.8528 36.5996 13.8528 36.5945 13.858C36.5893 13.858 36.5841 13.8632 36.5789 13.8684C36.4131 13.9409 36.2526 14.0186 36.0868 14.086C36.1282 14.0652 36.1749 14.0497 36.2163 14.029C36.1593 14.0549 36.1023 14.086 36.0454 14.1119H36.0402C36.0195 14.1274 35.9987 14.1429 35.978 14.1533C35.9003 14.1896 35.8226 14.2258 35.7449 14.2569C35.7138 14.2776 35.6776 14.2932 35.6413 14.3087C35.605 14.3294 35.5688 14.345 35.5273 14.3605C35.4911 14.3812 35.4496 14.3968 35.4134 14.4123C35.4082 14.4123 35.403 14.4175 35.3978 14.4175C35.3978 14.4175 35.3978 14.4175 35.3926 14.4175C35.3875 14.4175 35.3823 14.4227 35.3771 14.4227C35.3719 14.4279 35.3616 14.4279 35.3564 14.433C35.3149 14.4589 35.2683 14.4797 35.2165 14.5004C35.2062 14.5056 35.1958 14.5107 35.1854 14.5159C35.1699 14.5263 35.1492 14.5366 35.1336 14.5418C35.1233 14.547 35.1129 14.5574 35.0974 14.5625C34.828 14.7024 34.5535 14.8112 34.2737 14.9096C34.1857 14.977 34.0872 15.0236 33.9681 15.0495C33.937 15.0702 33.9007 15.0857 33.8645 15.1013C33.7971 15.1427 33.7246 15.1686 33.6417 15.1893C33.5848 15.2204 33.5278 15.2515 33.4604 15.2722C33.4293 15.2826 33.4034 15.2981 33.3672 15.3085C33.362 15.3085 33.362 15.3085 33.3568 15.3137C33.3102 15.3396 33.2636 15.3603 33.2118 15.3758C33.1652 15.3966 33.1185 15.4173 33.0667 15.4328C33.0616 15.4328 33.0564 15.438 33.0512 15.438C32.989 15.4794 32.9165 15.5105 32.8388 15.5312C32.7766 15.5623 32.7145 15.5882 32.642 15.6089C32.6057 15.6245 32.5746 15.64 32.5383 15.6556C32.4865 15.6815 32.4296 15.7074 32.3674 15.7229C32.3104 15.754 32.2483 15.7799 32.1809 15.8006C32.155 15.811 32.1291 15.8213 32.1032 15.8317C32.0721 15.8421 32.041 15.8576 32.01 15.8628C31.9685 15.8835 31.9271 15.9042 31.8805 15.9198C31.8494 15.9353 31.8183 15.9457 31.7872 15.956C31.7458 15.9767 31.6992 16.0026 31.6525 16.013C31.5852 16.0544 31.5023 16.0803 31.4194 16.1011C31.3987 16.1114 31.378 16.1166 31.3573 16.1218C31.3365 16.1321 31.3106 16.1425 31.2899 16.1529C31.2174 16.1943 31.1345 16.2306 31.0464 16.2461C30.9946 16.272 30.9377 16.2927 30.8807 16.3083C30.8289 16.3342 30.7771 16.3549 30.7149 16.3704C30.6838 16.386 30.6476 16.4015 30.6113 16.4119C30.5647 16.4378 30.5181 16.4533 30.4611 16.4689C30.3989 16.4999 30.3316 16.5258 30.2539 16.5466C30.2124 16.5621 30.1658 16.5776 30.1192 16.5932C30.1088 16.5984 30.0933 16.6035 30.0829 16.6035C30.0518 16.6191 30.0208 16.6346 29.9845 16.6398C29.9793 16.645 29.969 16.645 29.9638 16.6502H29.9586C29.8913 16.6864 29.8136 16.7175 29.7307 16.7382C29.6633 16.7745 29.5908 16.8056 29.5079 16.8263C29.4561 16.847 29.3991 16.8677 29.3422 16.8781C29.2748 16.9144 29.2023 16.9403 29.1194 16.961C29.0521 16.9972 28.9744 17.0231 28.8863 17.0439C28.8708 17.0542 28.85 17.0594 28.8345 17.0698C28.762 17.106 28.6791 17.1371 28.591 17.1578C28.5444 17.1785 28.4978 17.1993 28.446 17.2096C28.389 17.2355 28.3268 17.2562 28.2595 17.2718C28.2336 17.2821 28.2025 17.2925 28.1714 17.2977C28.0937 17.3391 28.0108 17.3754 27.9124 17.3909C27.871 17.4117 27.8295 17.4272 27.7829 17.4376C27.7518 17.4479 27.7208 17.4635 27.6897 17.4686C27.6171 17.4997 27.5394 17.5204 27.4514 17.536C27.4462 17.536 27.441 17.5412 27.4358 17.5412C27.3944 17.5619 27.3426 17.5774 27.296 17.593C27.2856 17.5981 27.2753 17.6033 27.2649 17.6033C27.2597 17.6033 27.2545 17.6085 27.2442 17.6085C27.1354 17.6499 27.0266 17.6862 26.9126 17.7121C26.8349 17.7535 26.7469 17.7846 26.6485 17.8054C26.5811 17.8313 26.5138 17.8572 26.4309 17.8675C26.3843 17.8831 26.3376 17.8986 26.291 17.909C26.2392 17.9349 26.1822 17.9556 26.1252 17.9763C26.0527 18.0126 25.9698 18.0385 25.8818 18.054C25.8144 18.0903 25.7367 18.1162 25.6487 18.1317C25.6383 18.1369 25.6279 18.1369 25.6176 18.1369C25.5451 18.1731 25.4674 18.199 25.3845 18.2146C25.3275 18.2353 25.2705 18.256 25.2032 18.2664C25.1358 18.2975 25.0581 18.3234 24.9701 18.3389C24.9493 18.3493 24.9286 18.3545 24.9027 18.3596C24.8354 18.3907 24.7629 18.4114 24.6852 18.427C24.6178 18.4529 24.5505 18.4788 24.4728 18.4891C24.4417 18.4995 24.4106 18.5099 24.3795 18.515C24.3174 18.5461 24.25 18.5668 24.1775 18.5824C24.0894 18.629 23.9858 18.6601 23.8719 18.6756C23.8615 18.6808 23.846 18.686 23.8356 18.6912C23.7683 18.7222 23.6957 18.743 23.6128 18.7585C23.53 18.7948 23.4419 18.8259 23.3383 18.8362C23.2554 18.8777 23.157 18.9087 23.0482 18.9243C22.9964 18.945 22.9394 18.9657 22.8824 18.9761C22.8462 18.9916 22.8047 19.0072 22.7633 19.0175C22.6908 19.0486 22.6131 19.0693 22.5302 19.0849C22.4887 19.0952 22.4473 19.1056 22.4007 19.1159C22.3437 19.1367 22.2867 19.1522 22.2194 19.1677C22.1468 19.204 22.0588 19.2247 21.9655 19.2403C21.9241 19.2558 21.8775 19.2714 21.8309 19.2817C21.7531 19.318 21.6651 19.3387 21.5667 19.3491C21.5045 19.375 21.4372 19.3957 21.3646 19.406C21.3439 19.4164 21.318 19.4216 21.2973 19.4268C21.2196 19.463 21.1367 19.4837 21.0435 19.4993C20.9917 19.52 20.9295 19.5355 20.8673 19.5407H20.8622C20.7845 19.577 20.6964 19.6029 20.6031 19.6184C20.5254 19.6495 20.4426 19.6754 20.3545 19.6858C20.2975 19.7065 20.2405 19.722 20.1784 19.7324C20.1369 19.7479 20.0903 19.7635 20.0385 19.7738C19.9919 19.7894 19.9401 19.7997 19.8831 19.8049C19.8261 19.8256 19.7639 19.8464 19.7018 19.8567C19.6862 19.8619 19.6655 19.8671 19.65 19.8671C19.593 19.8878 19.536 19.9033 19.4687 19.9137C18.8937 20.1157 18.2824 20.2349 17.6815 20.354C17.6452 20.3644 17.609 20.3696 17.5727 20.3747C17.5261 20.3903 17.4795 20.4006 17.4277 20.4058C17.4173 20.4058 17.4121 20.411 17.4018 20.411C17.3603 20.4265 17.3189 20.4369 17.2723 20.4473C17.2464 20.4576 17.2205 20.4576 17.1894 20.4628C17.1324 20.4835 17.0702 20.4991 17.0081 20.5146C16.9718 20.5301 16.9356 20.5405 16.8889 20.5457C16.8371 20.556 16.7905 20.5664 16.7387 20.5768C16.6869 20.5923 16.6299 20.6078 16.5678 20.6182C16.5211 20.6337 16.4693 20.6441 16.4123 20.6493C16.3916 20.6545 16.3761 20.6596 16.3605 20.6648C16.3087 20.6804 16.2518 20.6959 16.1896 20.7063C16.1378 20.7218 16.0808 20.7374 16.0238 20.7425C15.9669 20.7633 15.9047 20.7736 15.8373 20.784C15.7907 20.7995 15.7389 20.8099 15.6923 20.8151C15.6768 20.8202 15.656 20.8202 15.6353 20.8254C15.5835 20.841 15.5265 20.8565 15.4696 20.8669C15.4437 20.8772 15.4074 20.8772 15.3763 20.8824C15.3556 20.8876 15.3349 20.8876 15.3141 20.8928C15.2934 20.8979 15.2675 20.9031 15.2468 20.9083C15.1846 20.929 15.1121 20.9446 15.0344 20.9549C14.8738 20.9912 14.7184 21.0274 14.5578 21.0533H14.5527C14.5475 21.0533 14.5475 21.0533 14.5423 21.0533C14.5164 21.0585 14.4853 21.0637 14.4594 21.0689C14.4076 21.0896 14.3454 21.1 14.2833 21.1103C14.2522 21.1155 14.2211 21.1207 14.19 21.1259C14.1486 21.1362 14.1072 21.1466 14.0605 21.1518C14.0502 21.1518 14.0398 21.1569 14.0295 21.1621C13.9621 21.188 13.8896 21.1984 13.8119 21.2087C13.7653 21.2191 13.7135 21.2295 13.6617 21.2346C13.6358 21.2398 13.615 21.245 13.5891 21.2502C13.5529 21.2606 13.5114 21.2657 13.47 21.2709C13.4544 21.2761 13.4337 21.2813 13.4182 21.2865C13.3664 21.302 13.3094 21.3124 13.2472 21.3175C13.2265 21.3227 13.1954 21.3227 13.1747 21.3279C13.1747 21.3279 13.1747 21.3279 13.1695 21.3279C13.1074 21.3486 13.0452 21.359 12.9779 21.3642C12.9261 21.3797 12.8691 21.3901 12.8121 21.3952C12.7655 21.4056 12.7189 21.4108 12.6722 21.416C12.636 21.4263 12.5945 21.4315 12.5583 21.4367C12.5427 21.4419 12.522 21.4419 12.5013 21.447C12.4339 21.4678 12.3666 21.4781 12.2889 21.4781C12.206 21.4988 12.118 21.5196 12.0299 21.5247C11.9729 21.5403 11.9107 21.5506 11.8434 21.5558C11.8175 21.561 11.7968 21.5662 11.7709 21.5714C11.745 21.5765 11.7191 21.5765 11.6932 21.5817C11.6776 21.5869 11.6621 21.5869 11.6517 21.5869C11.543 21.6076 11.4342 21.6283 11.3254 21.6387C11.2943 21.6439 11.2632 21.6491 11.2321 21.6542C11.1907 21.6646 11.1493 21.6698 11.1078 21.675C11.0716 21.6801 11.0301 21.6905 10.9887 21.6957C10.9628 21.7009 10.9369 21.7061 10.911 21.7061C10.8954 21.7112 10.8799 21.7112 10.8643 21.7112C10.8592 21.7112 10.8592 21.7112 10.854 21.7112C10.8281 21.7164 10.797 21.7216 10.7711 21.7268C10.7607 21.7268 10.7452 21.732 10.7348 21.732C10.7348 21.732 10.7348 21.732 10.7297 21.732C10.7245 21.732 10.7193 21.732 10.7141 21.732C10.6934 21.7371 10.6779 21.7371 10.6571 21.7423C10.6364 21.7423 10.6209 21.7475 10.6002 21.7527C10.5898 21.7527 10.5794 21.7579 10.5691 21.7579C10.5276 21.7682 10.481 21.7734 10.4344 21.7786C10.3929 21.7889 10.3515 21.7941 10.3049 21.7993H10.2997C10.2427 21.8148 10.1806 21.8252 10.1132 21.8304C10.0977 21.8304 10.0873 21.8356 10.0718 21.8356C10.0459 21.8407 10.02 21.8459 9.98889 21.8511C9.94745 21.8615 9.90082 21.8615 9.85938 21.8666C9.83866 21.8718 9.81794 21.8718 9.8024 21.8718C9.76096 21.877 9.71952 21.8822 9.67807 21.8874C9.67289 21.8874 9.66771 21.8874 9.66253 21.8925C9.61591 21.9029 9.56411 21.9133 9.50713 21.9133C9.47087 21.9184 9.42942 21.9236 9.38798 21.9236C9.35172 21.9288 9.31028 21.9392 9.26884 21.9392C9.24294 21.9443 9.21704 21.9443 9.19113 21.9443C9.14969 21.9547 9.10307 21.9599 9.05645 21.9651C9.00465 21.9754 8.95284 21.9806 8.89586 21.9806C8.84406 21.991 8.78708 22.0013 8.7301 22.0013C8.72492 22.0013 8.72492 22.0013 8.71974 22.0013C8.69383 22.0065 8.66275 22.0065 8.63685 22.0117C8.57987 22.022 8.51771 22.0324 8.45554 22.0324C8.39856 22.0428 8.3364 22.0531 8.26906 22.0531C8.21208 22.0635 8.15509 22.0738 8.09293 22.0738C8.03595 22.0842 7.97379 22.0946 7.90644 22.0946C7.90126 22.0946 7.89608 22.0946 7.88572 22.0946C7.8391 22.1049 7.79248 22.1101 7.74586 22.1101C7.73032 22.1101 7.70959 22.1101 7.68887 22.1153C7.63707 22.1205 7.58527 22.1308 7.52829 22.1308H7.52311C7.50239 22.1308 7.48685 22.136 7.46612 22.136C7.43504 22.1412 7.40396 22.1412 7.37288 22.1464C7.3418 22.1515 7.30554 22.1516 7.26928 22.1567C7.21747 22.1671 7.16567 22.1723 7.10869 22.1723C6.8704 22.1982 6.62693 22.2137 6.38346 22.2189C6.3213 22.2293 6.25913 22.2396 6.19179 22.2396C6.18661 22.2396 6.18143 22.2396 6.17625 22.2396C5.92242 22.2655 5.66859 22.2707 5.45102 22.2603C5.44066 22.2603 5.43548 22.2603 5.42512 22.2603C5.41994 22.2603 5.41476 22.2603 5.4044 22.2603C5.38886 22.2603 5.37332 22.2603 5.35778 22.2603C5.31634 22.2655 5.27489 22.2707 5.23345 22.2707C5.19719 22.2707 5.15575 22.2707 5.12467 22.2655C5.11949 22.2655 5.11949 22.2655 5.11431 22.2655C5.10913 22.2655 5.10913 22.2655 5.10395 22.2655C4.91746 22.2759 4.73097 22.2759 4.54966 22.2655C4.50822 22.2655 4.36836 22.2603 4.34764 22.2603C4.32174 22.2603 4.29065 22.2655 4.26475 22.2655C4.22331 22.2655 4.18705 22.2603 4.15079 22.2552C4.13007 22.2552 4.10417 22.2603 4.08345 22.2603C4.03682 22.2603 3.99538 22.2552 3.95394 22.25H3.94876C3.9384 22.25 3.93322 22.25 3.92286 22.25C3.9125 22.25 3.90732 22.25 3.89696 22.25C3.87106 22.25 3.85034 22.2448 3.82962 22.2448C3.81407 22.2448 3.79335 22.2448 3.77781 22.2448C3.71565 22.2448 3.65867 22.2396 3.60687 22.2293C3.59133 22.2293 3.57578 22.2293 3.56024 22.2241C3.55506 22.2241 3.55506 22.2241 3.54988 22.2241C3.48772 22.2241 3.43592 22.2189 3.37894 22.2085C3.37376 22.2085 3.36858 22.2085 3.3634 22.2085C3.35822 22.2085 3.35822 22.2085 3.35304 22.2085C3.27533 22.2085 3.20799 22.2034 3.14065 22.1878C3.11475 22.1826 3.08885 22.1826 3.06294 22.1826C3.04222 22.1826 3.0215 22.1826 3.00596 22.1774C2.98006 22.1774 2.95416 22.1671 2.93344 22.1619C2.88682 22.1567 2.84019 22.1515 2.79875 22.1412C2.70033 22.136 2.60709 22.1205 2.5242 22.0946C2.50348 22.0894 2.48794 22.0842 2.46722 22.0842C2.45168 22.0842 2.43614 22.079 2.42578 22.079C2.40506 22.079 2.38434 22.0738 2.36362 22.0687C2.30663 22.0635 2.24965 22.0479 2.19267 22.0324C2.14605 22.022 2.1046 22.0117 2.06834 21.9961C2.05798 21.9961 2.0528 21.9961 2.04244 21.991C1.98546 21.9806 1.93366 21.9702 1.88704 21.9495C1.83523 21.934 1.78343 21.9184 1.73681 21.8977C1.66947 21.8822 1.6073 21.8563 1.55032 21.8252C1.4519 21.7993 1.36901 21.7579 1.29649 21.7061C1.23951 21.6802 1.18771 21.6491 1.14627 21.6128C1.12036 21.6024 1.10482 21.5817 1.0841 21.5714C0.964958 21.504 0.871714 21.4108 0.799191 21.302C0.737029 21.2139 0.685227 21.1207 0.659326 21.0171V21.0119C0.654146 21.0015 0.648965 20.9912 0.648965 20.9808C0.576442 20.7166 0.638605 20.5042 0.742209 20.266C0.794011 20.1468 0.856174 20.0173 0.933877 19.9137L0.939057 19.9085C0.975319 19.8464 1.01676 19.7894 1.06338 19.7376C1.08928 19.6961 1.12036 19.6547 1.15663 19.6184C1.20325 19.5511 1.25505 19.4837 1.31203 19.4216C1.35865 19.3542 1.41564 19.3024 1.48298 19.2506C1.49852 19.2351 1.51924 19.2195 1.53996 19.204C1.57104 19.1729 1.60212 19.1418 1.63839 19.1159C1.65911 19.1004 1.67465 19.0797 1.69537 19.0641C1.72645 19.0331 1.75753 19.002 1.78861 18.9761C1.80933 18.9502 1.84041 18.9346 1.86632 18.9087C1.90258 18.8673 1.94402 18.8362 1.99064 18.8C2.01136 18.7844 2.0269 18.7637 2.04762 18.7481C2.05798 18.7378 2.06834 18.7326 2.0787 18.7222C2.12533 18.6704 2.18231 18.6238 2.24965 18.5824C2.27037 18.5668 2.29627 18.5461 2.31699 18.5306C2.35326 18.4943 2.3947 18.4632 2.43614 18.4322C2.44132 18.427 2.4465 18.4218 2.45686 18.4114C0.700767 19.6391 -0.200589 20.7374 0.0377003 21.561C0.742209 23.9905 11.0456 23.1358 23.043 19.6495C35.0145 16.1529 44.1679 11.356 43.4634 8.92129Z" fill="white"/>
<path d="M47.8826 4.76532V0.331055H49.4107C49.9495 0.331055 50.4002 0.512362 50.7576 0.854256C51.1047 1.20133 51.2808 1.64683 51.2808 2.19075V2.92634C51.2808 3.46508 51.0995 3.91576 50.7576 4.26284C50.4105 4.60991 49.965 4.78604 49.4107 4.78604H47.8826V4.76532ZM48.7632 1.02002V4.09189H49.3486C49.6646 4.09189 49.9184 3.98828 50.0997 3.76035C50.281 3.54797 50.3691 3.26823 50.3691 2.92116V2.19075C50.3691 1.84368 50.281 1.55876 50.0997 1.35156C49.9184 1.13917 49.6646 1.02002 49.3486 1.02002H48.7632Z" fill="white"/>
<path d="M54.342 3.38836L54.3731 3.56967H54.3886L55.0206 1.47168H55.979L54.6425 5.2636C54.5544 5.50188 54.4197 5.69873 54.2695 5.8645C54.1037 6.03027 53.8654 6.10279 53.5494 6.10279C53.4769 6.10279 53.3992 6.10279 53.3371 6.08725C53.2749 6.07171 53.2024 6.05617 53.0988 6.04063L53.2024 5.39828C53.2335 5.39828 53.2645 5.41382 53.2904 5.41382C53.3215 5.41382 53.3526 5.41382 53.363 5.41382C53.5132 5.41382 53.6168 5.38274 53.71 5.31022C53.7826 5.23769 53.8447 5.14445 53.8913 5.04085L53.995 4.78702L52.8242 1.48722H53.7826L54.342 3.38836Z" fill="white"/>
<path d="M58.4032 1.47113L58.4499 1.95289C58.5535 1.78712 58.6882 1.65244 58.8539 1.56437C59.0197 1.47631 59.201 1.42969 59.3927 1.42969C59.7242 1.42969 59.9936 1.53329 60.1697 1.74568C60.351 1.95807 60.4546 2.28442 60.4546 2.7351V4.80201H59.5532V2.72992C59.5532 2.50717 59.5066 2.35695 59.4186 2.24816C59.3305 2.1601 59.1958 2.11348 59.0145 2.11348C58.8954 2.11348 58.7918 2.14456 58.6985 2.186C58.6105 2.23262 58.5327 2.30514 58.4602 2.39839V4.79683H57.5796V1.50221H58.4032V1.47113Z" fill="white"/>
<path d="M64.3088 4.76587C64.2777 4.69335 64.2466 4.61565 64.2207 4.52758C64.1896 4.43952 64.1741 4.36182 64.1741 4.27375C64.086 4.43952 63.9617 4.5742 63.8167 4.67781C63.6664 4.78141 63.4851 4.84358 63.2779 4.84358C62.9309 4.84358 62.6615 4.75551 62.4854 4.5742C62.304 4.3929 62.2004 4.15461 62.2004 3.83861C62.2004 3.50708 62.3196 3.26879 62.5734 3.08748C62.8272 2.90618 63.1899 2.81811 63.6664 2.81811H64.1586V2.54874C64.1586 2.38297 64.1119 2.26383 64.0394 2.17577C63.9514 2.0877 63.827 2.04108 63.6664 2.04108C63.5162 2.04108 63.4126 2.07216 63.3349 2.14469C63.2624 2.21721 63.2158 2.31045 63.2158 2.4296H62.361V2.41406C62.3455 2.12914 62.4646 1.89085 62.7185 1.69401C62.9723 1.48162 63.3194 1.39355 63.7234 1.39355C64.1119 1.39355 64.4435 1.49716 64.6818 1.69401C64.9201 1.89085 65.0547 2.17577 65.0547 2.54874V3.91114C65.0547 4.06136 65.0703 4.21159 65.0858 4.34628C65.1014 4.48096 65.148 4.61565 65.1894 4.75033H64.3036V4.76587H64.3088ZM63.4851 4.18569C63.6354 4.18569 63.7856 4.13907 63.9047 4.06654C64.0239 3.99402 64.1171 3.90078 64.143 3.79717V3.33095H63.6509C63.4541 3.33095 63.3194 3.37758 63.2158 3.46564C63.1122 3.5537 63.0655 3.67803 63.0655 3.81271C63.0655 3.91632 63.0966 4.00956 63.1691 4.08208C63.2572 4.15461 63.3608 4.18569 63.4851 4.18569Z" fill="white"/>
<path d="M67.7999 1.47088L67.831 1.90601C67.9346 1.74025 68.0693 1.6211 68.2351 1.53304C68.4008 1.44497 68.5821 1.39835 68.7893 1.39835C68.9965 1.39835 69.1779 1.44497 69.3281 1.53304C69.4783 1.6211 69.5975 1.77133 69.6752 1.95264C69.7788 1.77133 69.9134 1.63664 70.0637 1.53304C70.2294 1.42943 70.4211 1.38281 70.6335 1.38281C70.965 1.38281 71.2189 1.48642 71.4002 1.71435C71.597 1.9371 71.6851 2.28417 71.6851 2.73485V4.72923H70.7993V2.71413C70.7993 2.4603 70.7526 2.29453 70.6801 2.19093C70.6076 2.08732 70.4677 2.0407 70.3227 2.0407C70.2035 2.0407 70.0844 2.07178 69.9911 2.12876C69.9031 2.19093 69.8254 2.26345 69.7684 2.36705C69.7684 2.41367 69.7684 2.43958 69.7684 2.47066C69.7684 2.50174 69.7684 2.53282 69.7684 2.55872V4.73441H68.8826V2.72967C68.8826 2.49138 68.836 2.31007 68.7634 2.20647C68.6909 2.10286 68.551 2.05624 68.406 2.05624C68.2869 2.05624 68.1833 2.08732 68.09 2.12876C68.0019 2.17538 67.9242 2.23237 67.8673 2.32561V4.73959H66.9814V1.43979H67.8051V1.47088H67.7999Z" fill="white"/>
<path d="M74.5604 0.673428H73.6746V0H74.5604V0.673428ZM74.5604 4.76579H73.6746V1.47118H74.5604V4.76579Z" fill="white"/>
<path d="M77.9327 4.15507C78.0985 4.15507 78.2176 4.10845 78.3057 4.02039C78.3937 3.93232 78.4559 3.808 78.4559 3.64741H79.264L79.2796 3.66295C79.2951 3.99449 79.1604 4.2794 78.9066 4.50215C78.6527 4.7249 78.3212 4.83368 77.9482 4.83368C77.4561 4.83368 77.078 4.68346 76.8086 4.36746C76.5392 4.05147 76.4045 3.66295 76.4045 3.17083V3.08277C76.4045 2.60101 76.5392 2.19695 76.8086 1.88614C77.078 1.57015 77.4509 1.41992 77.9482 1.41992C78.3523 1.41992 78.6838 1.53907 78.9377 1.767C79.1915 1.98975 79.3106 2.30574 79.2951 2.68389V2.69943H78.487C78.487 2.53367 78.4404 2.38344 78.3523 2.27984C78.2642 2.16069 78.1296 2.11407 77.9638 2.11407C77.7255 2.11407 77.5597 2.20213 77.4717 2.38344C77.3836 2.56475 77.3214 2.80304 77.3214 3.08795V3.17601C77.3214 3.47647 77.3681 3.69922 77.4717 3.88052C77.5286 4.06183 77.6944 4.15507 77.9327 4.15507Z" fill="white"/>
<path d="M50.2756 11.1072C50.2756 10.9414 50.2134 10.7912 50.0942 10.7031C49.9751 10.5995 49.7627 10.5063 49.4623 10.4027C48.9391 10.2524 48.535 10.0711 48.2656 9.86391C47.9963 9.65152 47.8616 9.37179 47.8616 9.00917C47.8616 8.64656 48.0118 8.35129 48.3278 8.10782C48.6438 7.88507 49.0323 7.76074 49.5141 7.76074C50.0062 7.76074 50.3999 7.89543 50.7107 8.14926C51.0111 8.40309 51.1614 8.73462 51.1614 9.1076V9.12314H50.2911C50.2911 8.91075 50.2186 8.75016 50.0787 8.63102C49.944 8.51187 49.7472 8.43417 49.4933 8.43417C49.2551 8.43417 49.0737 8.49633 48.9391 8.59994C48.8044 8.70354 48.7422 8.83823 48.7422 9.00399C48.7422 9.15422 48.8147 9.27336 48.9546 9.37697C49.0893 9.46503 49.3276 9.57382 49.6747 9.67742C50.1668 9.81211 50.5294 9.99341 50.7832 10.2162C51.037 10.4389 51.1562 10.7394 51.1562 11.102C51.1562 11.475 51.006 11.7754 50.7055 12.0033C50.4051 12.2261 50.0165 12.3349 49.5192 12.3349C49.0375 12.3349 48.6179 12.2157 48.2604 11.9619C47.903 11.7081 47.7217 11.361 47.7372 10.9103V10.8948H48.6075C48.6075 11.1641 48.68 11.361 48.8458 11.4801C49.0116 11.5993 49.2343 11.6614 49.5192 11.6614C49.7575 11.6614 49.9388 11.6148 50.0735 11.5112C50.2186 11.4076 50.2756 11.2729 50.2756 11.1072Z" fill="white"/>
<path d="M52.8862 10.5983C52.8862 10.1062 53.0209 9.69695 53.2903 9.38614C53.5597 9.07015 53.9482 8.91992 54.4299 8.91992C54.922 8.91992 55.3002 9.07015 55.5851 9.38614C55.8545 9.70213 56.0047 10.1062 56.0047 10.5983V10.6605C56.0047 11.1526 55.87 11.5618 55.5851 11.8726C55.3157 12.1886 54.9272 12.3389 54.4455 12.3389C53.9534 12.3389 53.5752 12.1886 53.3058 11.8726C53.0365 11.5567 52.8862 11.1526 52.8862 10.6605V10.5983ZM53.772 10.6605C53.772 10.9609 53.8342 11.1992 53.9378 11.3805C54.0414 11.5618 54.2072 11.6499 54.4455 11.6499C54.6682 11.6499 54.8495 11.5618 54.9531 11.3805C55.0567 11.1992 55.1189 10.9609 55.1189 10.6605V10.5983C55.1189 10.2979 55.0567 10.0751 54.9531 9.87826C54.8495 9.69695 54.6682 9.59335 54.4455 9.59335C54.2227 9.59335 54.0414 9.68141 53.9378 9.87826C53.8342 10.0596 53.772 10.2979 53.772 10.5983V10.6605Z" fill="white"/>
<path d="M58.7296 12.2775H57.8438V7.51172H58.7296V12.2775Z" fill="white"/>
<path d="M62.7341 11.7949C62.6305 11.9762 62.5113 12.0953 62.3456 12.199C62.1953 12.287 62.014 12.3336 61.8068 12.3336C61.4597 12.3336 61.1904 12.23 60.9987 12.0021C60.807 11.7742 60.6982 11.4323 60.6982 10.9661V8.97168H61.5841V10.9816C61.5841 11.2199 61.6307 11.4012 61.7032 11.5048C61.7757 11.6084 61.9001 11.6706 62.0606 11.6706C62.1953 11.6706 62.33 11.6395 62.4181 11.598C62.5217 11.5514 62.5994 11.4789 62.6719 11.3857V8.97168H63.5577V12.2767H62.791L62.7341 11.7949Z" fill="white"/>
<path d="M66.5569 8.16916V8.97727H67.1111V9.60926H66.5569V11.2876C66.5569 11.4223 66.5879 11.5104 66.6294 11.557C66.676 11.6036 66.7485 11.6295 66.8418 11.6295C66.8884 11.6295 66.9298 11.6295 66.9609 11.614C66.992 11.5985 67.0334 11.5985 67.0801 11.5829L67.1526 12.2253C67.0645 12.2563 66.9713 12.2874 66.8832 12.2978C66.7951 12.3133 66.7019 12.3289 66.5983 12.3289C66.2978 12.3289 66.0596 12.2408 65.8938 12.075C65.728 11.9093 65.64 11.6399 65.64 11.2669V9.58854H65.1582V8.95655H65.64V8.14844H66.5569V8.16916Z" fill="white"/>
<path d="M69.8519 8.18515H68.9661V7.51172H69.8519V8.18515ZM69.8519 12.2775H68.9661V8.97772H69.8519V12.2775Z" fill="white"/>
<path d="M71.6956 10.5983C71.6956 10.1062 71.8302 9.69695 72.0996 9.38614C72.369 9.07015 72.7575 8.91992 73.2393 8.91992C73.7314 8.91992 74.1095 9.07015 74.3944 9.38614C74.6638 9.70213 74.814 10.1062 74.814 10.5983V10.6605C74.814 11.1526 74.6794 11.5618 74.3944 11.8726C74.1095 12.1886 73.7366 12.3389 73.2548 12.3389C72.7627 12.3389 72.3845 12.1886 72.1152 11.8726C71.8458 11.5567 71.6956 11.1526 71.6956 10.6605V10.5983ZM72.5969 10.6605C72.5969 10.9609 72.6591 11.1992 72.7627 11.3805C72.8663 11.5618 73.0321 11.6499 73.2703 11.6499C73.4931 11.6499 73.6744 11.5618 73.778 11.3805C73.8816 11.1992 73.9438 10.9609 73.9438 10.6605V10.5983C73.9438 10.2979 73.8816 10.0751 73.778 9.87826C73.6744 9.69695 73.4931 9.59335 73.2703 9.59335C73.0476 9.59335 72.8663 9.68141 72.7627 9.87826C72.6591 10.0596 72.5969 10.2979 72.5969 10.5983V10.6605Z" fill="white"/>
<path d="M77.4353 8.96722L77.4819 9.44898C77.5855 9.28322 77.7202 9.14853 77.886 9.06047C78.0517 8.9724 78.233 8.92578 78.4247 8.92578C78.7562 8.92578 79.0256 9.02939 79.2017 9.24177C79.383 9.45416 79.4866 9.78052 79.4866 10.2312V12.2981H78.5853V10.2312C78.5853 10.0084 78.5387 9.85822 78.4506 9.74943C78.3625 9.66137 78.2278 9.61475 78.0465 9.61475C77.9274 9.61475 77.8238 9.64583 77.7305 9.68727C77.6425 9.73389 77.5648 9.80642 77.4923 9.89966V12.2981H76.6064V8.9983H77.4301V8.96722H77.4353Z" fill="white"/>
<path d="M48.6439 19.7734H48.043V15.334H48.6439V19.7734Z" fill="white"/>
<path d="M50.5184 16.4733L50.565 16.9654C50.6686 16.7841 50.8188 16.6494 50.9846 16.5614C51.1504 16.4733 51.342 16.4111 51.5544 16.4111C51.9118 16.4111 52.1864 16.5147 52.3781 16.7271C52.5749 16.9395 52.6785 17.2503 52.6785 17.6855V19.7679H52.0776V17.701C52.0776 17.4161 52.0155 17.2089 51.8963 17.0846C51.7772 16.9654 51.6114 16.9033 51.3731 16.9033C51.1918 16.9033 51.0416 16.9499 50.9069 17.0224C50.7722 17.1105 50.6686 17.2192 50.5909 17.3695V19.7886H49.99V16.4888H50.5132V16.4733H50.5184Z" fill="white"/>
<path d="M54.3836 16.4733L54.4302 16.9654C54.5338 16.7841 54.6841 16.6494 54.8498 16.5614C55.0156 16.4733 55.2073 16.4111 55.4197 16.4111C55.7771 16.4111 56.0516 16.5147 56.2433 16.7271C56.4401 16.9395 56.5438 17.2503 56.5438 17.6855V19.7679H55.9429V17.701C55.9429 17.4161 55.8807 17.2089 55.7615 17.0846C55.6424 16.9654 55.4766 16.9033 55.2383 16.9033C55.057 16.9033 54.9068 16.9499 54.7721 17.0224C54.6374 17.1105 54.5338 17.2192 54.4561 17.3695V19.7886H53.8552V16.4888H54.3784V16.4733H54.3836Z" fill="white"/>
<path d="M57.5642 18.0943C57.5642 17.6022 57.6989 17.2085 57.9527 16.8821C58.2221 16.5662 58.5847 16.4004 59.0302 16.4004C59.4964 16.4004 59.8539 16.5662 60.1077 16.8821C60.3771 17.1981 60.5118 17.6022 60.5118 18.0943V18.1565C60.5118 18.6486 60.3771 19.0578 60.1232 19.3687C59.8539 19.6846 59.4913 19.8349 59.0458 19.8349C58.5951 19.8349 58.2376 19.6846 57.9683 19.3687C57.6989 19.0527 57.5642 18.6486 57.5642 18.1565V18.0943ZM58.1599 18.1513C58.1599 18.4984 58.2325 18.7936 58.3827 19.0216C58.5329 19.2443 58.7401 19.3687 59.0406 19.3687C59.3255 19.3687 59.5482 19.2495 59.6985 19.0216C59.8487 18.7988 59.9212 18.5139 59.9212 18.1513V18.0891C59.9212 17.7421 59.8487 17.4572 59.6985 17.2189C59.5482 16.9961 59.3255 16.8718 59.0406 16.8718C58.7557 16.8718 58.5329 16.9909 58.3982 17.2189C58.248 17.4416 58.1755 17.7265 58.1755 18.0891V18.1513H58.1599Z" fill="white"/>
<path d="M62.6304 18.7993L62.6771 19.022H62.6926L62.7548 18.7993L63.5214 16.4785H64.1379L62.9257 19.7783H62.475L61.2473 16.4785H61.8638L62.6304 18.7993Z" fill="white"/>
<path d="M66.9609 19.7731C66.9453 19.6695 66.9298 19.5762 66.9142 19.5037C66.8987 19.4312 66.8987 19.3535 66.8987 19.281C66.7951 19.4467 66.6449 19.5659 66.4636 19.685C66.2822 19.7886 66.0906 19.8508 65.8782 19.8508C65.5311 19.8508 65.2773 19.7627 65.1012 19.5814C64.9198 19.4001 64.8318 19.1618 64.8318 18.8458C64.8318 18.5298 64.9665 18.2916 65.2203 18.1102C65.4741 17.9289 65.8212 17.8409 66.2563 17.8409H66.9142V17.5093C66.9142 17.3125 66.8521 17.1623 66.7329 17.0431C66.6138 16.924 66.448 16.8774 66.2408 16.8774C66.044 16.8774 65.8937 16.924 65.7746 17.0276C65.6554 17.1312 65.5933 17.24 65.5933 17.385H65.0235V17.3695C65.0079 17.1312 65.1271 16.9033 65.3705 16.7116C65.6088 16.5147 65.9248 16.4111 66.2978 16.4111C66.6708 16.4111 66.9712 16.4992 67.1991 16.696C67.4271 16.8929 67.5462 17.1623 67.5462 17.5197V19.11C67.5462 19.2292 67.5462 19.3328 67.5618 19.4571C67.5773 19.5762 67.5928 19.6798 67.6239 19.7886H66.966V19.7731H66.9609ZM65.9714 19.3224C66.1942 19.3224 66.391 19.2602 66.5568 19.1566C66.7381 19.053 66.8417 18.9184 66.9039 18.7681V18.2449H66.2304C65.9922 18.2449 65.7953 18.3071 65.6451 18.4262C65.4949 18.5454 65.4223 18.6956 65.4223 18.8614C65.4223 19.0116 65.469 19.1152 65.557 19.2084C65.6554 19.2913 65.7901 19.3224 65.9714 19.3224Z" fill="white"/>
<path d="M69.4786 15.6806V16.4732H70.1106V16.9238H69.4786V18.9338C69.4786 19.084 69.5097 19.2031 69.5667 19.2653C69.6288 19.3274 69.7169 19.3534 69.8205 19.3534C69.8516 19.3534 69.893 19.3533 69.9396 19.3378C69.9863 19.3223 70.0122 19.3223 70.0432 19.3067L70.1158 19.7108C70.0691 19.7419 70.0122 19.7729 69.9189 19.7988C69.8308 19.8299 69.7376 19.8299 69.6651 19.8299C69.4268 19.8299 69.2299 19.7574 69.0797 19.6072C68.9295 19.457 68.8673 19.2342 68.8673 18.9182V16.9083H68.3545V16.4576H68.8777V15.665H69.4786V15.6806Z" fill="white"/>
<path d="M71.0071 18.0943C71.0071 17.6022 71.1418 17.2085 71.3956 16.8821C71.6494 16.5506 72.0276 16.4004 72.4731 16.4004C72.9393 16.4004 73.2967 16.5662 73.5506 16.8821C73.8199 17.1981 73.9546 17.6022 73.9546 18.0943V18.1565C73.9546 18.6486 73.8199 19.0578 73.5661 19.3687C73.3123 19.6846 72.9341 19.8349 72.4886 19.8349C72.0379 19.8349 71.6805 19.6846 71.4111 19.3687C71.1418 19.0527 71.0071 18.6486 71.0071 18.1565V18.0943ZM71.6235 18.1513C71.6235 18.4984 71.6961 18.7936 71.8463 19.0216C71.9965 19.2443 72.2037 19.3687 72.5042 19.3687C72.7891 19.3687 73.0118 19.2495 73.1621 19.0216C73.3123 18.7988 73.3848 18.5139 73.3848 18.1513V18.0891C73.3848 17.7421 73.3123 17.4572 73.1621 17.2189C73.0118 16.9961 72.7891 16.8718 72.5042 16.8718C72.2193 16.8718 71.9965 16.9909 71.8618 17.2189C71.7116 17.4416 71.6391 17.7265 71.6391 18.0891V18.1513H71.6235Z" fill="white"/>
<path d="M76.5858 16.9961L76.2698 16.9806C76.104 16.9806 75.9693 17.0272 75.8657 17.0997C75.7621 17.1722 75.6689 17.281 75.6119 17.4157V19.7675H75.011V16.4729H75.5497L75.6119 16.9547C75.7 16.7889 75.8243 16.6542 75.959 16.5506C76.0937 16.4626 76.2594 16.4004 76.4407 16.4004C76.4873 16.4004 76.5288 16.4004 76.5754 16.4159C76.622 16.4159 76.6479 16.4315 76.679 16.447L76.5858 16.9961Z" fill="white"/>
<path d="M79.3887 18.8868C79.3887 18.7521 79.3421 18.6485 79.2385 18.5553C79.1349 18.4672 78.9536 18.3895 78.6687 18.3325C78.2646 18.2445 77.9642 18.1201 77.7673 17.9751C77.5549 17.8249 77.4669 17.6177 77.4669 17.3586C77.4669 17.0893 77.586 16.8665 77.8139 16.6697C78.0367 16.4728 78.3371 16.3848 78.6998 16.3848C79.0883 16.3848 79.3887 16.4884 79.6167 16.6852C79.8394 16.8821 79.9482 17.1204 79.9482 17.4053V17.4208H79.3784C79.3784 17.2706 79.3162 17.1514 79.1971 17.0323C79.0779 16.9131 78.9121 16.851 78.7153 16.851C78.5029 16.851 78.3423 16.8976 78.2335 16.9857C78.1299 17.0737 78.0833 17.1981 78.0833 17.3327C78.0833 17.4674 78.1299 17.571 78.218 17.6487C78.3061 17.7213 78.5029 17.7834 78.7723 17.8456C79.1919 17.9336 79.5079 18.058 79.6995 18.203C79.9119 18.3532 80 18.5605 80 18.8195C80 19.1199 79.8808 19.3427 79.6426 19.524C79.4043 19.7053 79.1038 19.7933 78.7153 19.7933C78.2957 19.7933 77.9642 19.6897 77.7259 19.4774C77.4876 19.265 77.3684 19.0111 77.3788 18.7262V18.7107H77.9486C77.9642 18.9231 78.0367 19.0837 78.1869 19.1769C78.3371 19.265 78.5184 19.3271 78.7101 19.3271C78.9225 19.3271 79.0831 19.2805 79.2022 19.1924C79.3266 19.1406 79.3887 19.037 79.3887 18.8868Z" fill="white"/>
<path d="M48.6129 26.8034H50.7109V27.2851H48.012V22.8457H48.6129V26.8034Z" fill="white"/>
<path d="M52.6894 23.1757V23.9683H53.3214V24.4189H52.6894V26.4289C52.6894 26.5791 52.7205 26.6982 52.7775 26.7604C52.8396 26.8226 52.9277 26.8485 53.0313 26.8485C53.0624 26.8485 53.1038 26.8485 53.1504 26.8329C53.1971 26.8174 53.223 26.8174 53.254 26.8018L53.3266 27.2059C53.2799 27.237 53.223 27.2681 53.1297 27.294C53.0417 27.325 52.9484 27.325 52.8759 27.325C52.6376 27.325 52.4407 27.2525 52.2905 27.1023C52.1403 26.9521 52.0781 26.7293 52.0781 26.4133V24.4034H51.5549V23.9527H52.0781V23.1602H52.679V23.1757H52.6894Z" fill="white"/>
<path d="M54.5493 25.6784C54.5493 25.1552 54.6685 24.7201 54.8964 24.3885C55.1191 24.057 55.4351 23.8964 55.8547 23.8964C56.0516 23.8964 56.2122 23.9275 56.3624 24C56.5126 24.0725 56.6318 24.1813 56.7509 24.316V22.5029H57.3518V27.2687H56.8597L56.7872 26.8647C56.6836 27.0149 56.5489 27.134 56.3986 27.2117C56.2484 27.2843 56.0516 27.3309 55.8599 27.3309C55.4559 27.3309 55.1399 27.1807 54.9171 26.8958C54.6944 26.6108 54.57 26.2223 54.57 25.7406V25.6784H54.5493ZM55.1502 25.7354C55.1502 26.0669 55.2227 26.3363 55.3626 26.528C55.4973 26.7248 55.7097 26.8284 55.9946 26.8284C56.1759 26.8284 56.3261 26.7818 56.4453 26.7093C56.5644 26.6367 56.668 26.5124 56.7457 26.3622V24.834C56.6732 24.6993 56.5644 24.5957 56.4453 24.5025C56.3261 24.43 56.1759 24.3833 55.9946 24.3833C55.7097 24.3833 55.5025 24.5025 55.3522 24.7408C55.2176 24.9791 55.1399 25.2951 55.1399 25.668V25.7302H55.1502V25.7354Z" fill="white"/>
<path d="M59.5123 27.2628H58.9114V26.6309H59.5123V27.2628Z" fill="white"/>
</svg>
