<svg width="14" height="14" viewBox="0 0 14 14" fill="none" xmlns="http://www.w3.org/2000/svg">
<path d="M12.6387 0.759766L9.99805 0.150391C9.71875 0.0742188 9.41406 0.226562 9.28711 0.505859L8.06836 3.34961C7.9668 3.60352 8.04297 3.88281 8.24609 4.06055L9.79492 5.33008C8.88086 7.25977 7.28125 8.88477 5.30078 9.82422L4.03125 8.27539C3.85352 8.07227 3.57422 7.99609 3.32031 8.09766L0.476562 9.31641C0.197266 9.44336 0.0703125 9.74805 0.121094 10.0273L0.730469 12.668C0.806641 12.9473 1.03516 13.125 1.33984 13.125C7.83984 13.125 13.1211 7.86914 13.1211 1.34375C13.1211 1.06445 12.918 0.835938 12.6387 0.759766Z" fill="#AF9C3F"/>
</svg>
