<svg width="48" height="48" viewBox="0 0 48 48" fill="none" xmlns="http://www.w3.org/2000/svg">
<path d="M38.25 38.2636H38.4V38.1136V23.25V23.1H38.25H27H26.85V23.25V38.1136V38.2636H27H38.25ZM30.15 26.4H35.1V34.9636H30.15V26.4Z" fill="#AF9C3F" stroke="#AF9C3F" stroke-width="0.3"/>
<path d="M13.65 46.5V31.65H19.35V46.5V46.65H19.5H45H45.15V46.5V21.1836V21.1178L45.1016 21.0732L25.5151 3.05362C24.8813 2.47052 24.0467 2.15499 23.1857 2.173C22.3246 2.191 21.5039 2.54113 20.8951 3.15019C20.8951 3.1502 20.895 3.1502 20.895 3.15021L2.89393 21.1513L2.85 21.1952V21.2574V46.5V46.65H3H13.5H13.65V46.5ZM6.15 22.5628L23.3887 5.58152L41.85 22.5659V43.35H22.65V28.5V28.35H22.5H10.5H10.35V28.5V43.35H6.15V22.5628Z" fill="#AF9C3F" stroke="#AF9C3F" stroke-width="0.3"/>
</svg>
