<svg width="48" height="48" viewBox="0 0 48 48" fill="none" xmlns="http://www.w3.org/2000/svg">
<path d="M8.69988 18H39.3999L37.6999 12H10.4499L8.69988 18ZM13.9499 26H34.1499L33.6499 22H14.4999L13.9499 26ZM10.2999 40C9.69988 40 9.20788 39.7753 8.82388 39.326C8.44122 38.8753 8.28322 38.35 8.34988 37.75L10.4999 22H6.04988C5.38322 22 4.85855 21.7333 4.47588 21.2C4.09188 20.6667 3.98322 20.0833 4.14988 19.45L6.99988 9.45C7.13322 9.01667 7.36655 8.66667 7.69988 8.4C8.03322 8.13333 8.43322 8 8.89988 8H39.1999C39.6666 8 40.0666 8.13333 40.3999 8.4C40.7332 8.66667 40.9665 9.01667 41.0999 9.45L43.9499 19.45C44.1166 20.0833 44.0079 20.6667 43.6239 21.2C43.2412 21.7333 42.7166 22 42.0499 22H37.6499L39.7499 37.75C39.8166 38.35 39.6586 38.8753 39.2759 39.326C38.8919 39.7753 38.3999 40 37.7999 40C37.2999 40 36.8586 39.8413 36.4759 39.524C36.0919 39.208 35.8666 38.8 35.7999 38.3L34.6999 30H13.3999L12.2999 38.3C12.2332 38.8 12.0079 39.208 11.6239 39.524C11.2412 39.8413 10.7999 40 10.2999 40Z" fill="#F49E0B"/>
</svg>
