<svg width="120" height="120" viewBox="0 0 120 120" fill="none" xmlns="http://www.w3.org/2000/svg">
<circle cx="60" cy="60" r="60" fill="#AF9C3F" fill-opacity="0.2"/>
<path d="M64.5395 48C63.4395 49.9 64.0995 52.36 65.9995 53.46C67.8995 54.56 70.3595 53.9 71.4595 52C72.5595 50.1 71.8995 47.64 69.9995 46.54C68.0995 45.44 65.6395 46.1 64.5395 48Z" fill="#AF9C3F"/>
<path d="M67.6795 56.8201L62.4795 53.8201C57.7195 51.0601 56.0795 44.9401 58.8395 40.1801L55.3795 38.1801C52.1995 43.6601 53.1995 50.4201 57.3195 54.8001L47.0195 72.6401L50.4795 74.6401L53.4795 69.4401L56.9395 71.4401L50.9395 81.8401L54.3995 83.8401L66.9795 62.0601C68.1318 63.6237 68.8039 65.4888 68.914 67.4279C69.0241 69.367 68.5674 71.2962 67.5995 72.9801L71.0595 74.9801C74.2595 69.4801 73.6195 61.8201 67.6795 56.8201ZM61.4995 43.6001C62.9395 44.4201 64.7595 43.9401 65.5995 42.5001C66.4195 41.0601 65.9395 39.2401 64.4995 38.4001C63.8108 38.0164 62.9988 37.919 62.2388 38.1289C61.4789 38.3389 60.832 38.8394 60.438 39.5223C60.044 40.2053 59.9345 41.0158 60.1331 41.7788C60.3317 42.5418 60.8226 43.196 61.4995 43.6001Z" fill="#AF9C3F"/>
</svg>
