<svg width="128" height="128" viewBox="0 0 128 128" fill="none" xmlns="http://www.w3.org/2000/svg">
<circle cx="64" cy="64" r="64" fill="#F49E0B" fill-opacity="0.2"/>
<g clip-path="url(#clip0_3199_6666)">
<path d="M68.8426 51.2001C67.6693 53.2267 68.3733 55.8507 70.4 57.0241C72.4266 58.1974 75.0506 57.4934 76.224 55.4667C77.3973 53.4401 76.6933 50.8161 74.6666 49.6427C72.64 48.4694 70.016 49.1734 68.8426 51.2001Z" fill="#F49E0B"/>
<path d="M72.1916 60.6081L66.645 57.4081C61.5676 54.4641 59.8183 47.9361 62.7623 42.8587L59.0716 40.7254C55.6796 46.5707 56.7463 53.7814 61.141 58.4534L50.1543 77.4827L53.845 79.6161L57.045 74.0694L60.7356 76.2027L54.3356 87.2961L58.0263 89.4294L71.445 66.1974C72.674 67.8652 73.391 69.8546 73.5084 71.923C73.6259 73.9914 73.1387 76.0492 72.1063 77.8454L75.797 79.9787C79.2103 74.1121 78.5276 65.9414 72.1916 60.6081ZM65.5996 46.5067C67.1356 47.3814 69.077 46.8694 69.973 45.3334C70.8476 43.7974 70.3356 41.8561 68.7996 40.9601C68.065 40.5507 67.1988 40.4468 66.3882 40.6708C65.5776 40.8947 64.8876 41.4286 64.4673 42.1571C64.0471 42.8855 63.9303 43.7501 64.1421 44.5639C64.354 45.3778 64.8775 46.0756 65.5996 46.5067Z" fill="#F49E0B"/>
</g>
<defs>
<clipPath id="clip0_3199_6666">
<rect width="51.2" height="51.2" fill="white" transform="translate(38.4004 38.4)"/>
</clipPath>
</defs>
</svg>
