<svg width="48" height="48" viewBox="0 0 48 48" fill="none" xmlns="http://www.w3.org/2000/svg">
<path d="M31.6 23.9981C31.6 24.5066 31.3998 24.9942 31.0435 25.3538C30.6872 25.7133 30.2039 25.9153 29.7 25.9153C29.1961 25.9153 28.7128 25.7133 28.3565 25.3538C28.0002 24.9942 27.8 24.5066 27.8 23.9981C27.8 23.4896 28.0002 23.0019 28.3565 22.6424C28.7128 22.2828 29.1961 22.0808 29.7 22.0808C30.2039 22.0808 30.6872 22.2828 31.0435 22.6424C31.3998 23.0019 31.6 23.4896 31.6 23.9981V23.9981ZM22.4724 1.03719C22.1969 0.981612 21.9125 0.988401 21.6399 1.05706C21.3673 1.12573 21.1131 1.25455 20.8958 1.43426C20.6784 1.61397 20.5033 1.84009 20.383 2.09633C20.2627 2.35257 20.2002 2.63254 20.2 2.91608V45.0839C20.2002 45.3675 20.2627 45.6474 20.383 45.9037C20.5033 46.1599 20.6784 46.386 20.8958 46.5657C21.1131 46.7454 21.3673 46.8743 21.6399 46.9429C21.9125 47.0116 22.1969 47.0184 22.4724 46.9628L41.4724 43.1283C41.903 43.0415 42.2904 42.8069 42.5689 42.4643C42.8474 42.1218 42.9997 41.6925 43 41.2494V6.75057C42.9997 6.30751 42.8474 5.87822 42.5689 5.53568C42.2904 5.19315 41.903 4.95851 41.4724 4.87167L22.4724 1.03719V1.03719ZM24 42.7449V5.25512L39.2 8.32271V39.6773L24 42.7449ZM16.4 43.1667V39.3322H8.8V8.66781H16.4V4.83333H6.9C6.39609 4.83333 5.91282 5.03532 5.5565 5.39487C5.20018 5.75443 5 6.24209 5 6.75057V41.2494C5 41.7579 5.20018 42.2456 5.5565 42.6051C5.91282 42.9647 6.39609 43.1667 6.9 43.1667H16.4Z" fill="black"/>
</svg>
