<svg width="48" height="48" viewBox="0 0 48 48" fill="none" xmlns="http://www.w3.org/2000/svg">
<path d="M38.25 38.2636H38.4V38.1136V23.25V23.1H38.25H27H26.85V23.25V38.1136V38.2636H27H38.25ZM30.15 26.4H35.1V34.9636H30.15V26.4Z" fill="#F49E0B" stroke="#F49E0B" stroke-width="0.3"/>
<path d="M13.65 46.5V31.65H19.35V46.5V46.65H19.5H45H45.15V46.5V21.1836V21.1177L45.1016 21.0732L25.5151 3.05358C24.8813 2.47049 24.0467 2.15496 23.1857 2.17296C22.3246 2.19096 21.5039 2.54109 20.8951 3.15015C20.8951 3.15016 20.895 3.15017 20.895 3.15017L2.89393 21.1513L2.85 21.1952V21.2573V46.5V46.65H3H13.5H13.65V46.5ZM6.15 22.5628L23.3887 5.58148L41.85 22.5658V43.35H22.65V28.5V28.35H22.5H10.5H10.35V28.5V43.35H6.15V22.5628Z" fill="#F49E0B" stroke="#F49E0B" stroke-width="0.3"/>
</svg>
