<svg width="120" height="120" viewBox="0 0 120 120" fill="none" xmlns="http://www.w3.org/2000/svg">
<circle cx="60" cy="60" r="60" fill="#AF9C3F" fill-opacity="0.2"/>
<path d="M74.275 49.2H74.395C75.3275 49.2002 76.2472 49.4178 77.0809 49.8355C77.9147 50.2532 78.6396 50.8595 79.1982 51.6063C79.7567 52.353 80.1335 53.2197 80.2986 54.1375C80.4638 55.0553 80.4127 55.9989 80.1495 56.8935C79.8863 57.7882 79.4182 58.6091 78.7823 59.2912C78.1465 59.9734 77.3603 60.4979 76.4864 60.8232C75.6124 61.1484 74.6747 61.2655 73.7475 61.1651C72.8204 61.0647 71.9295 60.7496 71.1454 60.2448L72.2254 64.6944C72.3322 65.1357 72.3374 65.5954 72.2407 66.039C72.144 66.4826 71.9479 66.8984 71.6671 67.2552C71.3864 67.612 71.0283 67.9004 70.6199 68.0987C70.2115 68.297 69.7634 68.4 69.3094 68.4H67.4782C67.0241 68.3998 66.5761 68.2964 66.1677 68.0978C65.7594 67.8993 65.4015 67.6106 65.121 67.2535C64.8404 66.8965 64.6446 66.4805 64.5482 66.0367C64.4518 65.593 64.4574 65.1332 64.5646 64.692L65.6446 60.2448C64.6333 60.8987 63.4476 61.2309 62.2438 61.1976C61.9797 60.1809 61.3896 59.2788 60.5638 58.6296C60.984 57.535 61.1996 56.3725 61.1998 55.2C61.1998 53.2368 60.6094 51.4128 59.599 49.8912C60.4981 49.4164 61.5033 49.1785 62.5198 49.2C62.3587 48.4081 62.3587 47.5919 62.5198 46.8C62.8381 45.2405 63.7628 43.8714 65.0905 42.9937C66.4183 42.116 68.0403 41.8017 69.5998 42.12C71.1593 42.4383 72.5285 43.363 73.4061 44.6907C74.2838 46.0185 74.5981 47.6405 74.2798 49.2H74.275ZM51.5998 48C50.2099 48 48.8497 48.4024 47.6835 49.1584C46.5172 49.9144 45.5947 50.9919 45.0273 52.2607C44.4599 53.5295 44.2718 54.9354 44.4858 56.3087C44.6999 57.682 45.3068 58.964 46.2334 60H45.5998C44.9633 60 44.3528 60.2529 43.9027 60.7029C43.4527 61.153 43.1998 61.7635 43.1998 62.4C43.1998 63.0365 43.4527 63.647 43.9027 64.0971C44.3528 64.5471 44.9633 64.8 45.5998 64.8H46.8478C45.955 69.1152 43.6006 71.6064 42.2878 72.7032C41.4574 73.3992 40.7998 74.4696 40.7998 75.7176C40.7998 77.64 42.3598 79.2 44.2822 79.2H58.9198C60.8398 79.2 62.3998 77.64 62.3998 75.7176C62.3998 74.4696 61.7422 73.3992 60.9118 72.7032C59.599 71.6064 57.2446 69.1152 56.3518 64.8H57.5998C58.2363 64.8 58.8468 64.5471 59.2969 64.0971C59.7469 63.647 59.9998 63.0365 59.9998 62.4C59.9998 61.7635 59.7469 61.153 59.2969 60.7029C58.8468 60.2529 58.2363 60 57.5998 60H56.9662C57.8928 58.964 58.4997 57.682 58.7138 56.3087C58.9278 54.9354 58.7398 53.5295 58.1723 52.2607C57.6049 50.9919 56.6824 49.9144 55.5161 49.1584C54.3499 48.4024 52.9897 48 51.5998 48Z" fill="#AF9C3F"/>
</svg>
