<svg width="128" height="128" viewBox="0 0 128 128" fill="none" xmlns="http://www.w3.org/2000/svg">
<circle cx="64" cy="64" r="64" fill="#F49E0B" fill-opacity="0.2"/>
<path d="M79.2274 52.48H79.3554C80.3501 52.4803 81.331 52.7124 82.2204 53.1579C83.1097 53.6034 83.883 54.2501 84.4788 55.0467C85.0745 55.8432 85.4765 56.7677 85.6526 57.7467C85.8288 58.7256 85.7743 59.7322 85.4935 60.6865C85.2128 61.6407 84.7134 62.5164 84.0352 63.244C83.3569 63.9716 82.5184 64.5311 81.5862 64.878C80.654 65.225 79.6537 65.3499 78.6648 65.2428C77.6758 65.1357 76.7255 64.7996 75.8891 64.2611L77.0411 69.0074C77.155 69.4781 77.1606 69.9685 77.0575 70.4416C76.9543 70.9148 76.7451 71.3583 76.4457 71.7389C76.1462 72.1195 75.7642 72.4271 75.3286 72.6386C74.893 72.8502 74.415 72.96 73.9307 72.96H71.9775C71.4931 72.9597 71.0152 72.8495 70.5796 72.6377C70.1441 72.4259 69.7623 72.1179 69.4631 71.7371C69.1638 71.3563 68.9549 70.9125 68.8521 70.4392C68.7493 69.9659 68.7553 69.4755 68.8696 69.0048L70.0216 64.2611C68.9429 64.9587 67.6782 65.313 66.3941 65.2775C66.1124 64.193 65.4829 63.2308 64.6021 62.5383C65.0503 61.3707 65.2802 60.1307 65.2805 58.88C65.2805 56.7859 64.6507 54.8403 63.573 53.2173C64.532 52.7108 65.6042 52.4571 66.6885 52.48C66.5167 51.6353 66.5167 50.7647 66.6885 49.92C67.028 48.2566 68.0144 46.7961 69.4306 45.8599C70.8469 44.9238 72.5771 44.5885 74.2405 44.928C75.9039 45.2675 77.3644 46.2539 78.3006 47.6701C79.2368 49.0864 79.572 50.8166 79.2325 52.48H79.2274ZM55.0405 51.2C53.558 51.2 52.1071 51.6292 50.8631 52.4356C49.6191 53.2421 48.635 54.3914 48.0298 55.7447C47.4246 57.0981 47.224 58.5978 47.4523 60.0626C47.6806 61.5275 48.328 62.895 49.3163 64H48.6405C47.9616 64 47.3104 64.2697 46.8303 64.7498C46.3502 65.2299 46.0805 65.8811 46.0805 66.56C46.0805 67.239 46.3502 67.8901 46.8303 68.3702C47.3104 68.8503 47.9616 69.12 48.6405 69.12H49.9717C49.0194 73.7229 46.508 76.3802 45.1077 77.5501C44.2219 78.2925 43.5205 79.4343 43.5205 80.7655C43.5205 82.816 45.1845 84.48 47.2351 84.48H62.8485C64.8965 84.48 66.5605 82.816 66.5605 80.7655C66.5605 79.4343 65.8591 78.2925 64.9733 77.5501C63.573 76.3802 61.0616 73.7229 60.1093 69.12H61.4405C62.1195 69.12 62.7706 68.8503 63.2507 68.3702C63.7308 67.8901 64.0005 67.239 64.0005 66.56C64.0005 65.8811 63.7308 65.2299 63.2507 64.7498C62.7706 64.2697 62.1195 64 61.4405 64H60.7647C61.753 62.895 62.4004 61.5275 62.6287 60.0626C62.857 58.5978 62.6565 57.0981 62.0512 55.7447C61.446 54.3914 60.462 53.2421 59.2179 52.4356C57.9739 51.6292 56.5231 51.2 55.0405 51.2Z" fill="#F49E0B"/>
</svg>
