<svg width="120" height="120" viewBox="0 0 120 120" fill="none" xmlns="http://www.w3.org/2000/svg">
<circle cx="60" cy="60" r="60" fill="#AF9C3F" fill-opacity="0.2"/>
<g clip-path="url(#clip0_1561_2699)">
<path d="M52.9997 40.0001H42.9997C42.6031 39.9623 42.2074 40.0803 41.8963 40.3292C41.5852 40.578 41.3832 40.9382 41.333 41.3334V80.0001H54.6663V41.3334C54.6162 40.9382 54.4142 40.578 54.1031 40.3292C53.792 40.0803 53.3963 39.9623 52.9997 40.0001Z" fill="#AF9C3F"/>
<path d="M81.0263 77.4534L71.773 53.0534C71.7109 52.8897 71.6171 52.7398 71.497 52.6123C71.3769 52.4848 71.2329 52.3823 71.0732 52.3105C70.9135 52.2386 70.7412 52.199 70.5661 52.1938C70.3911 52.1886 70.2167 52.2179 70.053 52.2801L65.333 54.1201V48.0001C65.333 47.6465 65.1925 47.3073 64.9425 47.0573C64.6924 46.8072 64.3533 46.6667 63.9997 46.6667H57.333V80.0001H65.333V55.5867L74.573 80.0001L81.0263 77.4534Z" fill="#AF9C3F"/>
</g>
<defs>
<clipPath id="clip0_1561_2699">
<rect width="48" height="48" fill="white" transform="translate(36 36)"/>
</clipPath>
</defs>
</svg>
