<svg width="128" height="128" viewBox="0 0 128 128" fill="none" xmlns="http://www.w3.org/2000/svg">
<circle cx="64" cy="64" r="64" fill="#F49E0B" fill-opacity="0.2"/>
<path d="M56.5333 42.6667H45.8666C45.4436 42.6264 45.0215 42.7522 44.6897 43.0177C44.3579 43.2832 44.1424 43.6674 44.0889 44.0889V85.3334H58.3111V44.0889C58.2576 43.6674 58.0421 43.2832 57.7103 43.0177C57.3785 42.7522 56.9563 42.6264 56.5333 42.6667Z" fill="#F49E0B"/>
<path d="M86.4282 82.6169L76.5579 56.5902C76.4917 56.4156 76.3916 56.2557 76.2635 56.1198C76.1355 55.9838 75.9818 55.8744 75.8115 55.7978C75.6411 55.7212 75.4573 55.6789 75.2706 55.6733C75.0839 55.6678 74.8979 55.699 74.7233 55.7654L69.6886 57.728V51.2C69.6886 50.8228 69.5388 50.4611 69.272 50.1944C69.0053 49.9276 68.6436 49.7778 68.2664 49.7778H61.1553V85.3334H69.6886V59.2925L79.5446 85.3334L86.4282 82.6169Z" fill="#F49E0B"/>
</svg>
