<svg width="48" height="48" viewBox="0 0 48 48" fill="none" xmlns="http://www.w3.org/2000/svg">
<path d="M38.2752 13.2002H38.3953C39.3278 13.2005 40.2474 13.4181 41.0812 13.8358C41.9149 14.2535 42.6399 14.8597 43.1984 15.6065C43.757 16.3533 44.1338 17.2199 44.2989 18.1377C44.464 19.0555 44.413 19.9992 44.1498 20.8938C43.8865 21.7884 43.4184 22.6094 42.7826 23.2915C42.1467 23.9736 41.3606 24.4981 40.4866 24.8234C39.6127 25.1487 38.6749 25.2658 37.7478 25.1654C36.8207 25.065 35.9297 24.7499 35.1457 24.245L36.2256 28.6946C36.3324 29.1359 36.3377 29.5957 36.241 30.0392C36.1443 30.4828 35.9481 30.8987 35.6674 31.2555C35.3866 31.6122 35.0286 31.9007 34.6201 32.099C34.2117 32.2973 33.7637 32.4003 33.3096 32.4002H31.4785C31.0244 32.4 30.5763 32.2967 30.168 32.0981C29.7597 31.8995 29.4017 31.6108 29.1212 31.2538C28.8407 30.8968 28.6448 30.4807 28.5485 30.037C28.4521 29.5933 28.4577 29.1335 28.5648 28.6922L29.6448 24.245C28.6336 24.899 27.4479 25.2312 26.2441 25.1978C25.98 24.1811 25.3898 23.2791 24.564 22.6298C24.9842 21.5352 25.1998 20.3727 25.2001 19.2002C25.2001 17.237 24.6096 15.413 23.5993 13.8914C24.4983 13.4166 25.5035 13.1787 26.5201 13.2002C26.3589 12.4084 26.3589 11.5921 26.5201 10.8002C26.8383 9.24077 27.763 7.8716 29.0908 6.99393C30.4185 6.11626 32.0406 5.80199 33.6 6.12025C35.1595 6.43851 36.5287 7.36323 37.4064 8.69099C38.284 10.0187 38.5983 11.6408 38.28 13.2002H38.2752ZM15.6 12.0002C14.2102 12.0003 12.85 12.4026 11.6837 13.1586C10.5174 13.9147 9.59491 14.9921 9.02751 16.2609C8.4601 17.5297 8.27206 18.9356 8.48609 20.309C8.70011 21.6823 9.30705 22.9643 10.2336 24.0002H9.60005C8.96353 24.0002 8.35308 24.2531 7.90299 24.7032C7.45291 25.1533 7.20005 25.7637 7.20005 26.4002C7.20005 27.0368 7.45291 27.6472 7.90299 28.0973C8.35308 28.5474 8.96353 28.8002 9.60005 28.8002H10.848C9.95525 33.1154 7.60085 35.6066 6.28805 36.7034C5.45765 37.3995 4.80005 38.4698 4.80005 39.7178C4.80005 41.6402 6.36005 43.2002 8.28245 43.2002H22.92C24.84 43.2002 26.4 41.6402 26.4 39.7178C26.4 38.4698 25.7425 37.3995 24.9121 36.7034C23.5993 35.6066 21.2448 33.1154 20.352 28.8002H21.6C22.2366 28.8002 22.847 28.5474 23.2971 28.0973C23.7472 27.6472 24 27.0368 24 26.4002C24 25.7637 23.7472 25.1533 23.2971 24.7032C22.847 24.2531 22.2366 24.0002 21.6 24.0002H20.9664C21.893 22.9643 22.5 21.6823 22.714 20.309C22.928 18.9356 22.74 17.5297 22.1726 16.2609C21.6052 14.9921 20.6827 13.9147 19.5164 13.1586C18.3501 12.4026 16.9899 12.0003 15.6 12.0002Z" fill="#AF9C3F"/>
</svg>
