<svg width="48" height="48" viewBox="0 0 48 48" fill="none" xmlns="http://www.w3.org/2000/svg">
<g clip-path="url(#clip0_2631_3006)">
<path d="M17 4.00009H7.00004C6.60346 3.96228 6.20772 4.0803 5.89664 4.32917C5.58555 4.57804 5.38354 4.93821 5.33337 5.33342V44.0001H18.6667V5.33342C18.6165 4.93821 18.4145 4.57804 18.1034 4.32917C17.7924 4.0803 17.3966 3.96228 17 4.00009Z" fill="#AF9C3F"/>
<path d="M45.0267 41.4537L35.7734 17.0537C35.7112 16.8899 35.6174 16.74 35.4974 16.6126C35.3773 16.4851 35.2333 16.3825 35.0736 16.3107C34.9138 16.2389 34.7415 16.1992 34.5665 16.194C34.3914 16.1888 34.2171 16.2181 34.0534 16.2803L29.3334 18.1203V12.0003C29.3334 11.6467 29.1929 11.3076 28.9429 11.0575C28.6928 10.8075 28.3537 10.667 28 10.667H21.3334V44.0003H29.3334V19.587L38.5734 44.0003L45.0267 41.4537Z" fill="#AF9C3F"/>
</g>
<defs>
<clipPath id="clip0_2631_3006">
<rect width="48" height="48" fill="white"/>
</clipPath>
</defs>
</svg>
