<svg width="48" height="48" viewBox="0 0 48 48" fill="none" xmlns="http://www.w3.org/2000/svg">
<path d="M28.54 11.9995C27.44 13.8995 28.1 16.3595 30 17.4595C31.9 18.5595 34.36 17.8995 35.46 15.9995C36.56 14.0995 35.9 11.6395 34 10.5395C32.1 9.43954 29.64 10.0995 28.54 11.9995Z" fill="#AF9C3F"/>
<path d="M31.68 20.8201L26.48 17.8201C21.72 15.0601 20.08 8.94014 22.84 4.18014L19.38 2.18014C16.2 7.66014 17.2 14.4201 21.32 18.8001L11.02 36.6401L14.48 38.6401L17.48 33.4401L20.94 35.4401L14.94 45.8401L18.4 47.8401L30.98 26.0601C32.1322 27.6237 32.8044 29.4888 32.9145 31.4279C33.0246 33.367 32.5679 35.2962 31.6 36.9801L35.06 38.9801C38.26 33.4801 37.62 25.8201 31.68 20.8201ZM25.5 7.60014C26.94 8.42014 28.76 7.94014 29.6 6.50014C30.42 5.06014 29.94 3.24014 28.5 2.40014C27.8113 2.01638 26.9992 1.91896 26.2393 2.12893C25.4793 2.33891 24.8325 2.83942 24.4385 3.52235C24.0445 4.20527 23.935 5.01578 24.1336 5.77878C24.3322 6.54178 24.823 7.19601 25.5 7.60014Z" fill="#AF9C3F"/>
</svg>
