<svg width="48" height="48" viewBox="0 0 48 48" fill="none" xmlns="http://www.w3.org/2000/svg">
<path d="M8.70001 18H39.4L37.7 12H10.45L8.70001 18ZM13.95 26H34.15L33.65 22H14.5L13.95 26ZM10.3 40C9.70001 40 9.20801 39.7753 8.82401 39.326C8.44134 38.8753 8.28334 38.35 8.35001 37.75L10.5 22H6.05001C5.38334 22 4.85867 21.7333 4.47601 21.2C4.09201 20.6667 3.98334 20.0833 4.15001 19.45L7.00001 9.45C7.13334 9.01667 7.36667 8.66667 7.70001 8.4C8.03334 8.13333 8.43334 8 8.90001 8H39.2C39.6667 8 40.0667 8.13333 40.4 8.4C40.7333 8.66667 40.9667 9.01667 41.1 9.45L43.95 19.45C44.1167 20.0833 44.008 20.6667 43.624 21.2C43.2413 21.7333 42.7167 22 42.05 22H37.65L39.75 37.75C39.8167 38.35 39.6587 38.8753 39.276 39.326C38.892 39.7753 38.4 40 37.8 40C37.3 40 36.8587 39.8413 36.476 39.524C36.092 39.208 35.8667 38.8 35.8 38.3L34.7 30H13.4L12.3 38.3C12.2333 38.8 12.008 39.208 11.624 39.524C11.2413 39.8413 10.8 40 10.3 40Z" fill="black"/>
</svg>
