<svg width="48" height="48" viewBox="0 0 48 48" fill="none" xmlns="http://www.w3.org/2000/svg">
<path d="M38.275 13.2H38.395C39.3275 13.2002 40.2472 13.4178 41.0809 13.8355C41.9147 14.2532 42.6396 14.8595 43.1982 15.6063C43.7567 16.353 44.1335 17.2197 44.2986 18.1375C44.4638 19.0553 44.4127 19.9989 44.1495 20.8935C43.8863 21.7882 43.4182 22.6091 42.7823 23.2912C42.1465 23.9734 41.3603 24.4979 40.4864 24.8232C39.6124 25.1484 38.6747 25.2655 37.7475 25.1651C36.8204 25.0647 35.9295 24.7496 35.1454 24.2448L36.2254 28.6944C36.3322 29.1357 36.3374 29.5954 36.2407 30.039C36.144 30.4826 35.9479 30.8984 35.6671 31.2552C35.3864 31.612 35.0283 31.9004 34.6199 32.0987C34.2115 32.297 33.7634 32.4 33.3094 32.4H31.4782C31.0241 32.3998 30.5761 32.2964 30.1677 32.0978C29.7594 31.8993 29.4015 31.6106 29.121 31.2535C28.8404 30.8965 28.6446 30.4805 28.5482 30.0367C28.4518 29.593 28.4574 29.1332 28.5646 28.692L29.6446 24.2448C28.6333 24.8987 27.4476 25.2309 26.2438 25.1976C25.9797 24.1809 25.3896 23.2788 24.5638 22.6296C24.984 21.535 25.1996 20.3725 25.1998 19.2C25.1998 17.2368 24.6094 15.4128 23.599 13.8912C24.4981 13.4164 25.5033 13.1785 26.5198 13.2C26.3587 12.4081 26.3587 11.5919 26.5198 10.8C26.8381 9.24053 27.7628 7.87136 29.0905 6.99369C30.4183 6.11602 32.0403 5.80174 33.5998 6.12C35.1593 6.43826 36.5285 7.36299 37.4061 8.69074C38.2838 10.0185 38.5981 11.6405 38.2798 13.2H38.275ZM15.5998 12C14.2099 12 12.8497 12.4024 11.6835 13.1584C10.5172 13.9144 9.59467 14.9919 9.02726 16.2607C8.45986 17.5295 8.27182 18.9354 8.48584 20.3087C8.69987 21.682 9.30681 22.964 10.2334 24H9.5998C8.96329 24 8.35284 24.2529 7.90275 24.7029C7.45266 25.153 7.1998 25.7635 7.1998 26.4C7.1998 27.0365 7.45266 27.647 7.90275 28.0971C8.35284 28.5471 8.96329 28.8 9.5998 28.8H10.8478C9.955 33.1152 7.6006 35.6064 6.2878 36.7032C5.4574 37.3992 4.7998 38.4696 4.7998 39.7176C4.7998 41.64 6.3598 43.2 8.2822 43.2H22.9198C24.8398 43.2 26.3998 41.64 26.3998 39.7176C26.3998 38.4696 25.7422 37.3992 24.9118 36.7032C23.599 35.6064 21.2446 33.1152 20.3518 28.8H21.5998C22.2363 28.8 22.8468 28.5471 23.2969 28.0971C23.7469 27.647 23.9998 27.0365 23.9998 26.4C23.9998 25.7635 23.7469 25.153 23.2969 24.7029C22.8468 24.2529 22.2363 24 21.5998 24H20.9662C21.8928 22.964 22.4997 21.682 22.7138 20.3087C22.9278 18.9354 22.7398 17.5295 22.1723 16.2607C21.6049 14.9919 20.6824 13.9144 19.5161 13.1584C18.3499 12.4024 16.9897 12 15.5998 12Z" fill="#F49E0B"/>
</svg>
