<svg width="48" height="48" viewBox="0 0 48 48" fill="none" xmlns="http://www.w3.org/2000/svg">
<g clip-path="url(#clip0_3199_6546)">
<path d="M16.9997 4H6.99967C6.60309 3.96219 6.20736 4.08021 5.89627 4.32908C5.58519 4.57795 5.38317 4.93812 5.33301 5.33333V44H18.6663V5.33333C18.6162 4.93812 18.4142 4.57795 18.1031 4.32908C17.792 4.08021 17.3963 3.96219 16.9997 4Z" fill="#F49E0B"/>
<path d="M45.0263 41.4533L35.773 17.0533C35.7109 16.8896 35.6171 16.7397 35.497 16.6122C35.3769 16.4848 35.2329 16.3822 35.0732 16.3104C34.9135 16.2386 34.7412 16.1989 34.5661 16.1937C34.3911 16.1885 34.2167 16.2178 34.053 16.28L29.333 18.12V12C29.333 11.6464 29.1925 11.3072 28.9425 11.0572C28.6924 10.8071 28.3533 10.6667 27.9997 10.6667H21.333V44H29.333V19.5867L38.573 44L45.0263 41.4533Z" fill="#F49E0B"/>
</g>
<defs>
<clipPath id="clip0_3199_6546">
<rect width="48" height="48" fill="white"/>
</clipPath>
</defs>
</svg>
