<svg width="48" height="48" viewBox="0 0 48 48" fill="none" xmlns="http://www.w3.org/2000/svg">
<path d="M28.5395 12C27.4395 13.9 28.0995 16.36 29.9995 17.46C31.8995 18.56 34.3595 17.9 35.4595 16C36.5595 14.1 35.8995 11.64 33.9995 10.54C32.0995 9.43997 29.6395 10.1 28.5395 12Z" fill="#F49E0B"/>
<path d="M31.6795 20.82L26.4795 17.82C21.7195 15.06 20.0795 8.94002 22.8395 4.18002L19.3795 2.18002C16.1995 7.66002 17.1995 14.42 21.3195 18.8L11.0195 36.64L14.4795 38.64L17.4795 33.44L20.9395 35.44L14.9395 45.84L18.3995 47.84L30.9795 26.06C32.1318 27.6236 32.8039 29.4887 32.914 31.4278C33.0241 33.3669 32.5674 35.2961 31.5995 36.98L35.0595 38.98C38.2595 33.48 37.6195 25.82 31.6795 20.82ZM25.4995 7.60002C26.9395 8.42002 28.7595 7.94002 29.5995 6.50002C30.4195 5.06002 29.9395 3.24002 28.4995 2.40002C27.8108 2.01625 26.9988 1.91884 26.2388 2.12881C25.4789 2.33879 24.832 2.8393 24.438 3.52223C24.044 4.20515 23.9345 5.01566 24.1331 5.77866C24.3317 6.54165 24.8226 7.19589 25.4995 7.60002Z" fill="#F49E0B"/>
</svg>
